<?xml version="1.0" encoding="UTF-8" standalone="no"?>
<!-- Created with Inkscape (http://www.inkscape.org/) -->

<svg
   width="165.77428mm"
   height="104.77791mm"
   viewBox="0 0 165.77428 104.77791"
   version="1.1"
   id="svg1"
   xml:space="preserve"
   inkscape:version="1.4 (86a8ad7, 2024-10-11)"
   sodipodi:docname="hh_spike - Copie.svg"
   inkscape:export-filename="hh_spike.png"
   inkscape:export-xdpi="96"
   inkscape:export-ydpi="96"
   xmlns:inkscape="http://www.inkscape.org/namespaces/inkscape"
   xmlns:sodipodi="http://sodipodi.sourceforge.net/DTD/sodipodi-0.dtd"
   xmlns="http://www.w3.org/2000/svg"
   xmlns:svg="http://www.w3.org/2000/svg"><sodipodi:namedview
     id="namedview1"
     pagecolor="#505050"
     bordercolor="#ffffff"
     borderopacity="1"
     inkscape:showpageshadow="0"
     inkscape:pageopacity="0"
     inkscape:pagecheckerboard="1"
     inkscape:deskcolor="#505050"
     inkscape:document-units="mm"
     inkscape:zoom="1.4142136"
     inkscape:cx="164.40233"
     inkscape:cy="255.26555"
     inkscape:window-width="3200"
     inkscape:window-height="1712"
     inkscape:window-x="2403"
     inkscape:window-y="-8"
     inkscape:window-maximized="1"
     inkscape:current-layer="layer1" /><defs
     id="defs1" /><g
     inkscape:label="Calque 1"
     inkscape:groupmode="layer"
     id="layer1"
     transform="translate(-15.631697,-15.391869)"><path
       style="fill:#000000"
       d="m 19.465809,104.77636 -3.834112,-0.0876 v -1.05833 -1.05833 l 3.677407,-0.053 c 3.70112,-0.0532 0.13234,-0.0769 5.318414,-0.21164 h 11.766297 c 11.764327,0 11.766344,-9e-5 12.048871,-0.56709 0.904547,-1.815319 2.177484,-1.933506 3.866044,-0.35895 1.242784,1.15888 1.97064,1.30376 3.085909,0.61426 1.075415,-0.66487 2.70267,-2.26181 2.70267,-2.652329 0,-0.188749 0.109829,-0.343179 0.244065,-0.343179 0.134235,0 0.387877,-0.446484 0.563648,-0.992187 0.175771,-0.545703 0.406837,-1.11125 0.51348,-1.256771 0.106643,-0.145521 0.458531,-1.633802 0.781974,-3.307292 0.323443,-1.673489 0.688117,-3.235351 0.810386,-3.470803 0.213048,-0.410263 0.850955,-4.699893 1.195408,-8.038572 0.09008,-0.873125 0.223392,-2.06375 0.296246,-2.645833 0.07285,-0.582083 0.124501,-1.296458 0.114771,-1.5875 -0.0097,-0.291042 0.157079,-2.136511 0.370687,-4.101042 0.213607,-1.964531 0.453889,-4.822031 0.53396,-6.35 0.08007,-1.527969 0.269577,-3.790156 0.421124,-5.027083 0.151548,-1.236927 0.28085,-2.994342 0.287338,-3.905366 0.0065,-0.911024 0.123261,-1.725296 0.259495,-1.809493 0.146463,-0.09052 0.12107,-0.305662 -0.06213,-0.526405 -0.170405,-0.205326 -0.200674,-0.373319 -0.06726,-0.373319 0.13341,0 0.271844,-0.793031 0.30763,-1.762289 0.03579,-0.969259 0.144486,-1.890794 0.241555,-2.047854 0.328096,-0.53087 0.482242,0.987545 0.277851,2.73696 -0.215809,1.847127 -0.481892,6.189562 -0.592661,9.672141 -0.03703,1.164167 -0.09727,2.176198 -0.133879,2.248958 -0.03661,0.07276 -0.09384,0.668073 -0.127193,1.322917 -0.03335,0.654844 -0.138781,2.262187 -0.234289,3.571875 -0.09551,1.309687 -0.240944,3.571875 -0.323189,5.027083 -0.08225,1.455209 -0.195823,2.824427 -0.252394,3.042709 -0.05657,0.218281 -0.170848,1.408906 -0.25395,2.645833 -0.285909,4.255591 -0.464343,5.820833 -0.663563,5.820833 -0.109829,0 -0.279926,0.922735 -0.377994,2.050521 -0.09807,1.127786 -0.476291,3.360208 -0.840498,4.960938 -0.364207,1.600729 -0.770881,3.480498 -0.903719,4.177265 -0.132839,0.696766 -0.413933,1.612444 -0.624653,2.034844 -0.534706,1.07185 -2.094668,2.90551 -2.476698,2.91125 -0.17467,0.003 -0.434185,0.21312 -0.576701,0.46779 -0.216729,0.38727 -0.647177,0.46302 -2.631203,0.46302 -1.88783,0 -2.476531,-0.0945 -2.883715,-0.46302 -0.62641,-0.5669 -1.026348,-0.58931 -1.226117,-0.0687 -0.130621,0.34039 -1.879958,0.4037 -12.794453,0.46302 l -12.643145,0.0687 c -2.116227,0 -1.130025,-0.0848 -5.161714,-0.17694 z m 65.486722,15.12593 c -0.08994,-0.14553 -0.370404,-0.26459 -0.62326,-0.26459 -0.613972,0 -1.4782,-0.64501 -3.077046,-2.29653 -1.261228,-1.30277 -1.719226,-2.2044 -2.731054,-5.37638 -1.070401,-3.35561 -2.140101,-10.55496 -2.692911,-18.123963 -0.148796,-2.037291 -0.328869,-4.001823 -0.400163,-4.365625 -0.158583,-0.809231 -0.740393,-11.68847 -0.69171,-12.934269 0.01925,-0.492651 -0.09927,-1.057513 -0.263374,-1.255251 -0.164107,-0.197737 -0.23702,-0.680494 -0.162027,-1.072792 0.07499,-0.392298 0.03539,-1.434779 -0.088,-2.316624 -0.12339,-0.881846 -0.285332,-2.734449 -0.359871,-4.116897 -0.07454,-1.382448 -0.20384,-3.763698 -0.287336,-5.291667 -0.08349,-1.527969 -0.270542,-3.832685 -0.415659,-5.121592 -0.186213,-1.653917 -0.17961,-2.444969 0.02244,-2.688424 0.192896,-0.232426 0.198039,-0.399498 0.01577,-0.512149 -0.148788,-0.09196 -0.264771,-0.608572 -0.25774,-1.148035 0.03847,-2.951819 -0.02917,-4.607404 -0.199496,-4.883 -0.10524,-0.170282 -0.162148,-0.790707 -0.126463,-1.378723 0.0543,-0.89468 -0.308693,-5.991817 -0.89577,-12.578493 -0.07134,-0.800365 -0.206611,-2.322391 -0.300608,-3.382279 -0.094,-1.059889 -0.27216,-1.98965 -0.395916,-2.066136 -0.123757,-0.07649 -0.22511,-0.45946 -0.225229,-0.851055 -1.19e-4,-0.391594 -0.175754,-1.553384 -0.3903,-2.581755 -0.214546,-1.028372 -0.412323,-2.516653 -0.439506,-3.307292 -0.04918,-1.430509 -0.522391,-2.980795 -0.999949,-3.275942 -0.436101,-0.269526 -1.080445,0.988191 -1.080445,2.108955 0,0.59336 -0.100585,1.191946 -0.223522,1.330191 -0.122937,0.138245 -0.368716,1.918229 -0.546176,3.955521 -0.489725,5.62219 -0.547584,6.054159 -0.849866,6.344942 -0.197113,0.189615 -0.220066,-0.437087 -0.07734,-2.111609 0.111633,-1.309687 0.190002,-2.619375 0.174155,-2.910416 -0.04107,-0.754244 0.467471,-5.551624 0.77129,-7.276042 0.423131,-2.401613 0.440009,-2.491613 0.579787,-3.091684 0.185048,-0.794411 0.674818,-1.670816 0.93372,-1.670816 0.746802,0 2.439074,4.206361 2.379198,5.913804 -0.01607,0.458189 0.110967,1.487915 0.282299,2.288279 0.171332,0.800365 0.48475,3.300677 0.696484,5.55625 0.211734,2.255573 0.497023,4.299115 0.633977,4.541203 0.136953,0.242089 0.37513,2.504277 0.529283,5.027084 0.154152,2.522807 0.393231,5.301297 0.531285,6.174422 0.138055,0.873125 0.251649,2.897187 0.252432,4.497916 7.83e-4,1.600729 0.115535,3.295764 0.255006,3.766745 0.158485,0.535192 0.160051,0.914133 0.0042,1.01047 -0.137173,0.08478 -0.181666,0.263748 -0.09887,0.397711 0.08279,0.133963 0.202197,1.346127 0.26534,2.693697 0.256029,5.464012 0.793763,15.122593 0.90976,16.340752 0.02078,0.218281 0.08513,1.230313 0.142995,2.248959 0.05786,1.018645 0.216796,2.916682 0.353187,4.217859 0.136392,1.301177 0.18512,2.5296 0.108285,2.729829 -0.07684,0.200228 -0.0136,0.62391 0.14052,0.941515 0.154121,0.317605 0.348244,2.006213 0.431384,3.752463 0.08314,1.74625 0.200041,3.532188 0.259779,3.96875 0.05974,0.436563 0.252473,2.460625 0.428301,4.497917 0.175828,2.037292 0.417244,3.826205 0.536481,3.975364 0.119238,0.149162 0.293094,0.923062 0.386349,1.719792 0.325602,2.78181 1.295132,6.71572 1.772857,7.19344 0.260073,0.26008 0.472859,0.70396 0.472859,0.98641 0,0.28246 0.107885,0.58023 0.239745,0.66173 0.131859,0.0815 0.184063,0.36109 0.11601,0.62133 -0.07003,0.26779 0.113009,0.68741 0.421714,0.96678 0.299996,0.2715 0.545448,0.64509 0.545448,0.8302 0,0.18512 0.744141,1.07929 1.653646,1.98704 l 1.653646,1.65046 3.388331,-0.0236 c 2.211038,-0.0154 3.44639,-0.34065 3.770312,-0.34065 0.322945,0 0.393651,0.0953 0.760405,-0.003 0.434703,-0.11648 0.237352,-0.0767 0.646184,-0.18626 0.461384,-0.12363 0.675839,-0.0777 2.45369,-0.5541 5.197322,-1.39262 35.229642,-8.07525 40.349692,-8.86616 0.91457,-0.11266 6.50208,-1.56131 12.23843,-1.88235 1.6596,-0.0929 3.5646,-0.297 4.23334,-0.45361 0.66873,-0.15661 2.28744,-0.33248 3.59713,-0.39083 1.30969,-0.0583 2.55984,-0.1755 2.77813,-0.26036 0.58706,-0.22823 1.33388,-0.2772 7.3493,-0.4819 3.01564,-0.10262 5.5961,-0.2948 5.73434,-0.42708 0.13825,-0.13227 2.19581,-0.24049 4.57237,-0.24049 4.6806,0 4.81459,0.0437 4.46019,1.4558 -0.16162,0.64394 -0.2284,0.66116 -2.60822,0.67239 -1.3433,0.006 -2.97814,0.12223 -3.63298,0.25753 -0.65485,0.13531 -2.67891,0.3264 -4.49792,0.42464 -3.93219,0.86818 -8.19716,0.5922 -12.07277,1.55388 -3.32248,0.89026 -8.88988,1.19204 -12.00431,2.02655 -0.0937,0.0251 -1.01204,0.26059 -2.24896,0.36362 -3.17697,0.69866 -6.47517,0.92444 -9.65729,1.92907 -0.21829,0.0765 -0.68444,0.17242 -1.03591,0.21321 -0.35147,0.0408 -1.44151,0.3179 -2.42232,0.61581 -2.86021,0.86879 -10.17888,2.13133 -20.40657,4.88224 -0.62608,0.20625 -1.76341,0.45625 -2.52739,0.55556 -1.82448,1.05558 -4.03321,0.86305 -6.01927,1.44961 -0.29104,0.12472 -1.06495,0.29328 -1.71979,0.37457 -0.654843,0.0813 -2.370875,0.32887 -3.813405,0.55018 -2.999058,0.46011 -11.404157,0.55939 -11.664719,0.1378 z M 64.953186,50.846036 c -0.07874,-1.322097 0.08077,-1.746738 0.547714,-1.458148 0.205668,0.127109 0.211695,0.28276 0.0199,0.513859 -0.151325,0.182335 -0.205724,0.40093 -0.120887,0.485767 0.08484,0.08484 0.02789,0.371539 -0.126541,0.637115 -0.253737,0.436341 -0.284586,0.419134 -0.320185,-0.178593 z m 0.287886,-3.704167 c 0,-0.436563 0.119063,-0.79375 0.264584,-0.79375 0.145521,0 0.264583,0.357187 0.264583,0.79375 0,0.436562 -0.119062,0.79375 -0.264583,0.79375 -0.145521,0 -0.264584,-0.357188 -0.264584,-0.79375 z m 0.202683,-2.012392 c -0.10273,-0.16093 -0.111685,-0.926681 -0.0199,-1.701668 0.116362,-0.982498 0.223063,-1.254358 0.35246,-0.898024 0.229196,0.631157 -0.07437,3.004161 -0.332561,2.599692 z m 0.194192,-5.131358 c -0.08994,-0.145521 -0.03743,-0.264583 0.116677,-0.264583 0.154109,0 0.280198,0.119062 0.280198,0.264583 0,0.145521 -0.0525,0.264583 -0.116676,0.264583 -0.06417,0 -0.190262,-0.119062 -0.280199,-0.264583 z m 0.230513,-2.6185 c 0.0915,-0.930852 0.166362,-2.2178 0.166362,-2.859885 0,-0.642086 0.104237,-1.103007 0.231636,-1.024269 0.310143,0.191678 0.04259,4.975794 -0.297077,5.312029 -0.179871,0.178054 -0.212876,-0.288917 -0.100921,-1.427875 z"
       id="path1"
       sodipodi:nodetypes="scccccsssssssssssscsssssssssssssssssssssscssssscscssssssssssssssssssssssssssssssssssssssssssssssssssssssssssssscsssssssscssssscsssssssscssssccsssssssssssssssssssssssssss" /></g></svg>
