<?xml version="1.0" encoding="UTF-8" standalone="no"?>
<!-- Created with Inkscape (http://www.inkscape.org/) -->

<svg
   version="1.1"
   id="svg1"
   width="776.94879"
   height="668.36859"
   viewBox="0 0 776.94879 668.36859"
   sodipodi:docname="minimal_brain.svg"
   inkscape:version="1.4 (86a8ad7, 2024-10-11)"
   xmlns:inkscape="http://www.inkscape.org/namespaces/inkscape"
   xmlns:sodipodi="http://sodipodi.sourceforge.net/DTD/sodipodi-0.dtd"
   xmlns="http://www.w3.org/2000/svg"
   xmlns:svg="http://www.w3.org/2000/svg">
  <defs
     id="defs1" />
  <sodipodi:namedview
     id="namedview1"
     pagecolor="#505050"
     bordercolor="#ffffff"
     borderopacity="1"
     inkscape:showpageshadow="0"
     inkscape:pageopacity="0"
     inkscape:pagecheckerboard="1"
     inkscape:deskcolor="#505050"
     inkscape:zoom="0.83789062"
     inkscape:cx="709.51981"
     inkscape:cy="395.03963"
     inkscape:window-width="3200"
     inkscape:window-height="1712"
     inkscape:window-x="2403"
     inkscape:window-y="-8"
     inkscape:window-maximized="1"
     inkscape:current-layer="g1" />
  <g
     inkscape:groupmode="layer"
     inkscape:label="Image"
     id="g1"
     transform="translate(-58.258685,-116.7165)">
    <path
       style="fill:#000000"
       d="m 537.20055,781.58508 c -1.21235,-1.925 -8.724,-16.7956 -16.69256,-33.04578 -7.96856,-16.25018 -16.20161,-32.22518 -18.29568,-35.5 -4.25517,-6.65449 -9.17288,-12.57372 -41.51534,-49.97021 -12.375,-14.30879 -23.49184,-27.28072 -24.70409,-28.82649 l -2.20409,-2.81051 -10.79591,3.94235 c -26.64795,9.73106 -41.33635,12.60555 -64.29591,12.58262 -15.20513,-0.0152 -17.41054,-0.25756 -28.10264,-3.08832 -12.69081,-3.35993 -30.6748,-11.38094 -40.98906,-18.28147 -8.29019,-5.54636 -25.45998,-23.01459 -29.76291,-30.28023 -7.96353,-13.44669 -11.61829,-26.37437 -11.52669,-40.77244 l 0.0671,-10.55048 -7.09291,0.87741 c -3.9011,0.48258 -18.34291,0.6697 -32.09291,0.41583 -22.01301,-0.40643 -26.44121,-0.77041 -37.06237,-3.04634 -15.11572,-3.23904 -28.00726,-7.53025 -41.22503,-13.72258 -14.20389,-6.65431 -22.50217,-12.42771 -31.811554,-22.13238 -18.66593,-19.45852 -28.37118,-38.961 -33.3292,-66.97424 -1.10161,-6.22421 -3.22833,-15.14174 -4.72603,-19.81674 -2.56856,-8.01764 -2.72639,-9.6066 -2.78121,-28 -0.0648,-21.74791 0.92677,-28.29642 7.11682,-47 6.08745,-18.3936 16.49617,-35.50707 31.01054,-50.9859 5.820144,-6.20688 7.789094,-9.18096 10.322464,-15.59198 11.92155,-30.16903 38.03176,-57.59112 70.4759,-74.01691 8.29577,-4.19997 13.07669,-7.464 19.5,-13.31304 19.00089,-17.30213 30.79794,-25.2732 53.50967,-36.15559 21.73132,-10.41262 40.13655,-16.68985 54,-18.41707 14.51958,-1.80897 19.82891,-3.10998 29.5,-7.22874 13.27852,-5.65511 33.44427,-10.85507 48.01177,-12.38038 6.61467,-0.69259 17.94784,-0.96184 27.38635,-0.65062 22.92345,0.75587 36.92291,4.05381 47.54166,11.1997 l 4.9115,3.3052 2.82436,-2.97558 c 7.19333,-7.57847 19.62633,-11.20013 38.32436,-11.16366 15.43891,0.0301 27.44508,2.17643 44.57124,7.96788 5.76954,1.95105 16.09671,4.39638 23.12004,5.4745 35.40939,5.43557 53.54836,12.65868 69.27747,27.58695 8.22651,7.80766 9.24629,8.43544 23.95888,14.74922 8.45166,3.62696 19.06532,8.61061 23.5859,11.07478 24.50247,13.35633 43.13187,31.93267 53.12357,52.9724 3.2224,6.78548 4.4792,8.26189 12.4294,14.60191 25.3526,20.21766 43.5435,50.10816 49.414,81.19475 1.1885,6.29405 2.6729,10.15047 6.2556,16.25218 15.5454,26.47516 21.7872,43.78058 25.4285,70.5 2.0402,14.97128 1.6873,68.15262 -0.5607,84.5 -5.425,39.44911 -15.9586,62.07312 -35.8698,77.0406 -9.6514,7.25514 -25.2915,14.4594 -31.3907,14.4594 -2.0231,0 -2.3434,0.49114 -2.3434,3.59292 0,4.83388 -3.596,22.20237 -6.1657,29.78048 -11.4241,33.68911 -39.0738,62.13202 -73.53829,75.64787 -23.27158,9.12637 -43.22666,12.46002 -69.79601,11.65994 -17.94238,-0.54029 -26.4707,-1.79455 -37.94832,-5.58104 l -5.60698,-1.84976 0.62484,2.1248 c 1.15032,3.91169 19.52276,53.37976 25.9407,69.84574 l 1.45032,3.72096 -29.62636,0.27904 -29.62635,0.27905 z m 40.565,-16.75 c -1.58461,-4.2625 -5.83065,-15.56293 -9.43565,-25.11207 -5.72195,-15.15667 -9.94802,-28.27437 -12.01655,-37.29928 -0.38005,-1.65814 -2.96949,-4.53887 -6.86935,-7.64208 -6.63228,-5.27747 -14.39069,-13.75368 -19.40155,-21.19657 -1.66627,-2.475 -8.1067,-13.725 -14.31205,-25 -9.52208,-17.30141 -18.16634,-32.25597 -21.85631,-37.81139 -0.68332,-1.02877 -4.62159,0.0797 -18.27408,5.14338 -9.57167,3.55012 -19.98728,7.29024 -23.1458,8.31139 -3.15852,1.02114 -5.74602,2.19168 -5.75,2.60121 -0.004,0.40952 4.6352,6.03452 10.3093,12.5 29.93903,34.1147 50.52654,58.66945 55.55229,66.25732 3.09715,4.67605 11.92448,21.66355 19.61631,37.75 l 13.98515,29.24809 h 17.2397 17.2397 z m 60.43142,-62.29537 c 39.28805,-4.49176 70.6903,-20.82565 90.4486,-47.04687 10.8198,-14.35904 19.8262,-35.95629 21.6252,-51.8572 l 0.6952,-6.14461 -110.88451,0.3747 c -83.92166,0.28358 -112.1003,0.67678 -115.88449,1.61701 -5.302,1.31736 -17.75918,5.1686 -18.35249,5.67382 -0.19386,0.16509 2.57555,5.16654 6.15426,11.11434 3.5787,5.9478 9.20292,15.66949 12.49826,21.60375 l 5.99152,10.78957 70.10423,-0.0589 c 57.5237,-0.0483 70.10422,0.17864 70.10422,1.26466 0,0.72795 -1.34009,3.43664 -2.97798,6.01932 -2.84225,4.48176 -3.19546,4.70069 -7.75,4.80361 -2.62461,0.0593 -6.34702,0.23578 -8.27202,0.39217 -1.925,0.15639 -28.37287,0.33287 -58.77305,0.39217 l -55.27306,0.10783 1.72081,2.75 c 9.95809,15.91392 26.63291,29.30372 43.29175,34.76308 12.56865,4.11894 36.58854,5.60751 55.53355,3.44155 z m -249,-70.44813 c 12.12978,-2.73122 16.57031,-4.25914 78.28922,-26.93818 46.02889,-16.91363 54.67581,-19.25561 72.71078,-19.69339 l 6,-0.14565 25.04258,-24.86464 25.04257,-24.86464 h 66.54561 66.54564 l 17.1507,-16.25 17.1507,-16.25 0.011,-40.63871 0.011,-40.63871 -3.25,-0.60961 c -1.7875,-0.33529 -10.3208,-0.58558 -18.9628,-0.55621 -8.6421,0.0294 -16.5171,-0.39275 -17.5,-0.93806 -0.983,-0.54531 -10.9732,-10.21015 -22.2005,-21.47743 l -20.41323,-20.48595 0.0383,-35.48214 0.0383,-35.48214 -3.92837,-1.77145 c -12.42684,-5.60372 -17.50037,-20.47341 -10.90737,-31.9677 5.11038,-8.90948 14.05723,-13.29796 23.53779,-11.54539 21.591,3.99133 26.5741,32.38906 7.5202,42.85653 l -4.9821,2.73697 0.057,31.78493 0.057,31.78492 19.0223,18.71508 19.0224,18.71507 21.0157,0.5 c 20.5963,0.49002 21.0539,0.54712 22.9254,2.86078 1.8187,2.24836 1.9093,4.58198 1.903,49 -0.01,42.6952 -0.154,46.85654 -1.75,49.20912 -1.6093,2.37218 -21.6706,22.05862 -32.3039,31.70031 -2.5083,2.27437 -5.8833,4.719 -7.5,5.43251 -2.2965,1.01348 -17.3648,1.33965 -68.87984,1.49095 l -65.94034,0.19367 -18.53793,18.53794 -18.53794,18.53793 97.47828,-0.27835 c 108.59137,-0.31009 102.57807,0.0649 117.23187,-7.31055 15.0669,-7.58342 23.486,-15.88686 30.2904,-29.87431 6.5394,-13.44275 10.6963,-31.87206 13.5227,-59.95238 1.3591,-13.50182 0.716,-54.93601 -1.0561,-68.04762 -2.9675,-21.956 -9.9223,-41.53486 -21.8592,-61.53682 -6.1292,-10.27023 -7.1288,-12.71199 -9.6057,-23.46318 -7.552,-32.78017 -21.6506,-55.19603 -47.4861,-75.5 -7.346,-5.77323 -8.7191,-7.39449 -12.28,-14.5 -14.0344,-28.00434 -31.933,-43.39973 -68.2796,-58.7304 -20.10819,-8.48144 -22.23895,-9.68024 -26.72125,-15.03386 -8.8113,-10.52482 -24.00788,-18.77912 -42.72617,-23.20782 -14.27128,-3.37654 -33.06289,-6.63922 -34.19811,-5.93762 -0.46964,0.29025 -0.85389,28.34451 -0.85389,62.3428 v 61.81506 l 9.17893,7.8503 c 5.04841,4.31767 10.22341,8.89479 11.5,10.17138 l 2.32107,2.32107 v 41.41936 c 0,47.92981 1.19394,43.48513 -11.68426,43.49684 -4.29866,0.004 -10.83119,0.29192 -14.51673,0.64003 -6.07782,0.57406 -6.78604,0.87688 -7.61552,3.25634 -2.74289,7.86826 -11.44531,13.53602 -20.68349,13.47085 -9.71515,-0.0685 -16.35595,-4.41887 -20.41597,-13.37433 -5.50927,-12.15218 0.58903,-26.19768 13.20092,-30.40409 9.35645,-3.12063 16.18184,-1.49219 22.93816,5.47273 2.59772,2.67792 5.01245,6.02173 5.36608,7.4307 0.44231,1.76229 1.15287,2.41049 2.27688,2.07707 0.89866,-0.26658 5.34643,-0.59737 9.88393,-0.73509 l 8.25,-0.2504 -0.0848,-33.54546 -0.0848,-33.54546 -10.06184,-8.97881 c -5.65978,-5.05056 -10.65395,-10.3959 -11.41522,-12.21788 -1.09066,-2.61039 -1.35334,-15.84573 -1.35334,-68.19082 v -64.95176 l -4.75,-1.55379 c -13.3187,-4.35676 -22.78402,-5.92614 -36.25,-6.01037 -10.58163,-0.0662 -14.61932,0.30473 -18.6778,1.71587 -5.47573,1.90392 -13.3222,7.02302 -13.3222,8.69152 0,0.54527 1.51838,3.12995 3.37418,5.74373 3.82914,5.39309 6.86736,11.96197 9.31536,20.14054 1.4774,4.93588 1.72429,13.23907 2.0499,68.93921 0.26181,44.78493 0.0371,64.93215 -0.76754,68.80791 -1.45051,6.98709 -5.06716,12.24607 -27.29489,39.68965 l -17.67701,21.82499 -0.0378,16.67501 c -0.0555,24.521 -1.17257,31.08358 -6.54632,38.45978 -4.74036,6.50681 -11.48887,10.56961 -33.32558,20.063 -22.25394,9.67478 -75.13684,35.85403 -83.6601,41.41525 -10.19824,6.6541 -27.11319,21.87705 -35.23146,31.70724 -14.28939,17.30265 -19.31801,28.31534 -19.41994,42.52973 -0.1974,27.52778 17.83553,51.55098 50.72117,67.56998 18.3508,8.93891 30.01196,11.47559 50.5,10.98542 11.17592,-0.26738 17.25096,-0.96634 26.5,-3.0489 z m -65.89327,-60.39719 -3.79916,-3.8907 8.34622,-9.78283 c 25.62613,-30.03712 28.83505,-33.40156 34.6443,-36.32324 9.12886,-4.59123 30.73902,-13.61135 51.9988,-21.70439 23.02182,-8.76379 19.04683,-5.62525 51.17726,-40.40815 22.5702,-24.43345 27.84659,-29.35525 35.77972,-33.37528 10.26855,-5.20346 14.31093,-5.5939 58.08268,-5.60994 l 40.33656,-0.0148 6.41344,-6.15851 6.41345,-6.1585 v -82.09319 -82.09321 l -4.6533,-2.46858 c -9.35531,-4.96297 -13.97864,-15.93383 -11.00183,-26.10662 3.1287,-10.69188 11.01395,-16.92137 21.41895,-16.92137 15.01194,0 26.09296,12.73897 23.20052,26.67178 -0.59429,2.86268 -2.07202,6.67614 -3.28385,8.47437 -2.1412,3.17733 -9.2379,9.20527 -11.8745,10.08622 -1.06091,0.35447 -1.30599,16.29467 -1.30599,84.94101 v 84.50466 l -7.5,8.32144 c -11.36732,12.61234 -8.33196,11.95262 -55.11351,11.97856 -22.20342,0.0123 -41.98087,0.46378 -45,1.02724 -2.96257,0.5529 -8.20066,2.38192 -11.64019,4.06449 -5.54542,2.71272 -9.1281,6.13818 -31.63285,30.24471 -35.617,38.15205 -31.56437,34.76677 -49.16842,41.07182 -18.79167,6.73041 -50.14144,19.74654 -57.64425,23.93335 -4.48864,2.50481 -9.33503,7.26925 -22.81618,22.43035 -9.41433,10.5875 -17.22085,19.25 -17.34783,19.25 -0.12698,0 -1.9405,-1.75081 -4.03004,-3.89069 z M 627.44637,229.16147 c 5.19749,-5.67144 4.18961,-13.34098 -2.31683,-17.63005 -4.15115,-2.73646 -9.60134,-2.51665 -13.22614,0.53341 -6.51593,5.4828 -6.31925,12.57997 0.5149,18.58044 3.13984,2.75682 4.12112,3.09015 7.68834,2.61169 3.0017,-0.40261 4.95357,-1.49174 7.33973,-4.09549 z M 425.65954,553.52675 c -1.88427,-2.93639 -2.87187,-5.42334 -2.35424,-5.92845 0.49042,-0.47858 11.24167,-4.07916 23.89167,-8.0013 59.68287,-18.50469 63.73467,-19.92883 67.84636,-23.84679 2.1155,-2.01582 13.07679,-13.44842 24.35842,-25.40578 16.77399,-17.77868 21.1757,-21.90635 24.15364,-22.64989 2.00287,-0.50008 25.31644,-0.84179 51.80794,-0.75935 l 48.16637,0.14989 1.12874,-3.76658 c 2.68636,-8.96426 11.83748,-14.98229 22.68714,-14.9197 5.80309,0.0335 7.16619,0.4441 11.89359,3.58295 12.2097,8.10674 14.6868,23.66988 5.5268,34.72293 -10.004,12.07154 -30.5978,10.38739 -38.19121,-3.12325 l -2.24607,-3.99635 h -48.74328 -48.74328 l -2.1281,2.70544 c -1.17045,1.48799 -12.04836,12.96328 -24.17313,25.50065 l -22.04504,22.79521 -26.14944,8.45108 c -39.60844,12.80081 -61.12611,19.54762 -62.34342,19.54762 -0.60365,0 -2.5582,-2.27625 -4.34346,-5.05833 z m 266.93963,-70.89179 c 7.145,-3.64511 9.1192,-13.18633 3.8874,-18.78829 -5.0928,-5.45313 -11.66906,-6.53627 -17.2968,-2.84883 -2.87587,1.88435 -5.94204,9.6612 -5.11239,12.9668 0.34046,1.35646 1.81993,3.89352 3.28774,5.6379 4.4751,5.31836 8.99119,6.21731 15.23405,3.03242 z m -448.4022,49.98798 c 3.85,-0.53483 7.52183,-0.98715 8.15961,-1.00514 0.63779,-0.018 2.99079,-3.36922 5.22889,-7.44716 2.23811,-4.07793 6.79784,-10.80622 10.13274,-14.95175 6.972,-8.66669 23.41294,-24.47918 31.41728,-30.21636 3.00602,-2.1546 5.48175,-4.14245 5.50161,-4.41745 0.0199,-0.275 -5.69604,-3.41256 -12.70201,-6.97235 -7.00597,-3.55979 -16.95552,-8.84571 -22.11011,-11.74648 l -9.37199,-5.27414 -3.27288,2.87363 c -5.17416,4.54297 -11.40971,6.47933 -18.92295,5.87623 -6.99725,-0.56167 -11.63027,-2.77347 -17.58462,-8.39489 l -3.52442,-3.32736 -21.97558,10.31467 c -53.43277,25.07972 -50.24316,23.85647 -55.33707,21.22231 -4.16883,-2.15579 -3.96223,-4.20851 0.6115,-6.07562 2.0625,-0.84196 12.39836,-5.4605 22.96858,-10.26342 l 19.21858,-8.73258 -5.67966,-0.7404 c -13.0025,-1.69502 -23.81483,-6.52656 -36.90479,-16.49111 -11.83376,-9.00827 -11.94545,-9.26849 -3.97796,-9.26849 6.29669,0 6.92468,0.22474 12.87244,4.60679 12.14292,8.94637 22.00932,12.35153 35.86632,12.37843 8.12614,0.0158 14.53761,-0.9558 23.49924,-3.56102 l 5.57217,-1.61988 -0.54144,-4.42104 c -0.33687,-2.75071 0.0347,-6.01963 0.98357,-8.65216 l 1.525,-4.23112 L 204.023,410.74659 C 191.356,398.6018 183.01631,392.50127 172.09308,387.38967 l -6.85033,-3.20566 -23.02289,-0.58443 c -24.75014,-0.62827 -26.34016,-0.95285 -31.4472,-6.41949 l -2.42432,-2.59501 h 27.80718 27.80717 l -15.53038,-15.75 c -16.1548,-16.38324 -19.65943,-20.26898 -21.58677,-23.93426 -1.30844,-2.48829 -1.56861,-11.31574 -0.3335,-11.31574 0.44829,0 4.3676,3.7125 8.70958,8.25 4.34197,4.5375 12.86269,13.425 18.93492,19.75 l 11.04043,11.5 -0.30265,-31.25 c -0.21549,-22.25081 0.0142,-31.25 0.79775,-31.25 1.98429,0 5.98564,5.21477 7.05848,9.19897 0.6137,2.27913 0.97401,12.93738 0.8655,25.6028 -0.10224,11.93403 0.16392,23.04823 0.59145,24.69823 2.5025,9.65795 10.6565,21.1387 21.69645,30.54838 4.01116,3.41883 11.19848,9.98156 15.97181,14.58384 4.77334,4.60228 8.98338,8.36778 9.35565,8.36778 0.37227,0 1.99977,-1.11316 3.61667,-2.4737 1.61691,-1.36053 4.71937,-2.95288 6.89436,-3.53854 l 3.95453,-1.06485 v -40.00361 c 0,-42.49884 -0.47231,-48.00769 -5.21504,-60.82697 -3.20757,-8.66981 -7.39099,-14.18759 -25.46877,-33.59233 l -16.76909,-18 5.47645,-0.33549 5.47645,-0.33549 14.27768,14.75085 c 7.85273,8.11296 16.07759,17.44622 18.27747,20.74057 l 3.99978,5.98973 -0.0552,-29.90509 c -0.0304,-16.44779 -0.0427,-32.5272 -0.0275,-35.732 0.0242,-5.08786 0.39849,-6.19768 2.95082,-8.75 6.07575,-6.07572 6.07695,-6.07045 6.07695,26.62988 V 276.691 l 5.13552,-6.80296 c 2.82454,-3.74163 9.68704,-11.94398 15.25,-18.22745 l 10.11448,-11.42449 0.29518,6.65192 0.29517,6.65193 -8.20617,9.27256 c -14.2371,16.08722 -16.73292,19.69223 -19.57367,28.27257 -2.55094,7.70501 -2.66418,9.01404 -3.07093,35.5 -0.23228,15.125 -0.2687,29.02546 -0.081,30.8899 l 0.34137,3.3899 3.78816,-5.51849 c 2.08349,-3.03518 10.04833,-11.44073 17.69965,-18.67901 16.7177,-15.81525 22.40292,-23.07024 29.45058,-37.5823 7.84529,-16.15451 13.43519,-20.25308 12.27368,-8.9992 -0.73039,7.07682 -3.86103,14.18207 -11.2352,25.4992 -7.47699,11.47493 -14.80244,19.77373 -27.64544,31.31876 -5.31771,4.78028 -11.28285,10.89051 -13.25586,13.57829 -7.64126,10.40948 -11.56698,23.23695 -11.508,37.60295 l 0.0328,8 6.01266,2.85002 c 10.51859,4.98584 15.67631,14.6737 14.60954,27.44142 l -0.56051,6.70856 24.23955,12.67897 24.23955,12.67896 16.17319,-8.17896 16.17319,-8.17897 0.0874,-16.5 c 0.0481,-9.075 0.19033,-17.85 0.31606,-19.5 0.20351,-2.67071 -2.2751,-5.57568 -22.58124,-26.46559 -21.16078,-21.76925 -22.80971,-23.72535 -22.80971,-27.05887 0,-1.9763 0.58355,-4.39133 1.29677,-5.36672 1.19104,-1.62885 1.6557,-1.37946 5.69917,3.05887 2.42132,2.65777 12.14112,12.82782 21.59957,22.60012 l 17.19718,17.7678 0.12124,-9.45891 c 0.13655,-10.65291 3.2664,-24.8145 7.35936,-33.29881 l 2.511,-5.20504 -3.64215,-2.69202 c -7.51552,-5.55496 -11.08672,-12.06291 -11.12018,-20.26481 -0.0306,-7.49381 1.71076,-12.53079 6.02729,-17.43463 3.68205,-4.18303 11.13045,-8.68139 14.37467,-8.68139 1.56827,0 1.67966,-1.94419 1.39046,-24.2683 l -0.31438,-24.26831 -4.67633,-7.48169 c -5.14191,-8.22659 -14.11299,-19.17006 -28.2669,-34.4817 -19.86255,-21.48722 -21.00047,-23.5 -13.28565,-23.5 4.26136,0 4.308,0.0405 20.41598,17.75 8.87967,9.7625 18.26278,20.3375 20.85136,23.5 2.58857,3.1625 4.76388,5.75032 4.83402,5.7507 0.0701,3.9e-4 -0.004,-13.57083 -0.16524,-30.15827 l -0.29276,-30.15898 3.23893,-3.34173 c 1.78141,-1.83794 4.05065,-3.34172 5.04276,-3.34172 1.70331,0 1.80383,1.90754 1.80383,34.23112 v 34.23112 l 3.89192,-7.7471 c 4.45218,-8.86234 7.99156,-13.71378 21.4963,-29.46514 l 9.64541,-11.25 h 5.60563 c 6.53045,0 7.15405,-1.4732 -5.71449,13.5 -24.31631,28.29328 -29.6174,39.11551 -33.43859,68.26522 -0.8174,6.23547 -1.47493,15.92667 -1.46118,21.536 l 0.025,10.19878 4.1809,-4.5 c 2.2995,-2.475 14.51805,-15.4125 27.15232,-28.75 l 22.97142,-24.25 h 5.82267 c 3.20248,0 5.82268,0.30147 5.82268,0.66994 0,0.86004 -19.51452,21.43712 -48.8302,51.489 l -8.44682,8.65894 3.51223,3.08378 c 6.75359,5.92973 9.99105,17.39129 7.40678,26.22218 -2.90295,9.91984 -11.77094,17.50007 -21.92259,18.73911 l -5.21939,0.63705 -3.31275,8.30031 c -5.64438,14.14232 -6.15069,18.44641 -6.16989,52.44969 -0.01,16.9125 0.14539,30.75 0.34431,30.75 0.19892,0 6.16142,-2.75412 13.25,-6.12026 7.08858,-3.36615 19.49322,-8.92928 27.56587,-12.36252 19.52351,-8.3032 23.16131,-10.53607 26.54588,-16.2938 2.7556,-4.68774 2.78088,-4.8934 3.34593,-27.22342 0.31314,-12.375 0.93136,-23.30724 1.37383,-24.29388 0.44246,-0.98663 9.3036,-12.46163 19.69142,-25.5 10.38782,-13.03836 20.2321,-26.3655 21.87618,-29.61584 l 2.98922,-5.90972 v -58.75231 c 0,-65.89037 -0.23953,-68.84337 -6.64545,-81.92825 -4.39368,-8.97463 -13.75073,-18.62295 -21.71447,-22.39041 -24.08243,-11.39281 -75.43376,-8.02921 -108.64008,7.11611 -5.86614,2.67553 -11.30376,4.05606 -24.9606,6.3371 -19.26318,3.21744 -21.90107,3.95118 -40.0394,11.13701 -25.61605,10.14826 -48.88,24.80266 -68,42.83448 -5.63656,5.31576 -9.76188,8.14391 -16.60363,11.38277 -13.40028,6.34364 -24.4819,14.10617 -37.87868,26.53353 -14.31251,13.27683 -22.93621,25.79801 -29.63768,43.03242 -3.75282,9.65126 -4.72648,11.17553 -11.82801,18.51699 -18.560394,19.18747 -28.929234,39.00475 -34.152484,65.27342 -1.79919,9.04847 -2.05354,13.12576 -1.66577,26.70283 0.41262,14.44714 0.75982,16.95847 3.52873,25.52375 1.6891,5.225 3.78239,14.1233 4.65176,19.774 1.85152,12.03441 4.30567,19.83659 9.54966,30.3601 7.75885,15.57026 16.490454,26.27901 29.365594,36.01501 17.26863,13.0583 46.39694,23.63509 73.67051,26.75051 9.08949,1.03828 42.8065,0.48483 52.5,-0.86176 z m 3.62824,-86.60418 c 3.33133,-1.72269 6.81406,-8.18795 6.8498,-12.7158 0.0319,-4.03491 -2.26857,-8.78215 -5.92054,-12.21788 -2.72509,-2.56372 -3.96845,-3 -8.54983,-3 -15.69489,0 -21.34027,20.2545 -7.65986,27.48209 4.46173,2.35721 11.20973,2.55664 15.28043,0.45159 z m 284.98941,-71.31603 c 3.17398,-3.17398 3.88167,-4.58804 3.87861,-7.75 -0.008,-8.41048 -7.09241,-13.85385 -14.96168,-11.49616 -4.85368,1.4542 -7.08017,4.04951 -7.74846,9.03202 -1.04606,7.7989 4.11947,14.08447 11.58153,14.09275 2.58134,0.003 4.27413,-0.90274 7.25,-3.87861 z M 374.69933,341.04712 c 5.01697,-2.52072 6.49764,-5.21356 6.49764,-11.81703 0,-4.58981 -0.50617,-6.81963 -2,-8.81061 -2.9134,-3.88297 -6.74439,-5.8344 -11.45395,-5.8344 -13.40558,0 -19.70654,15.24466 -10.10361,24.44485 4.59524,4.40253 10.84226,5.14118 17.05992,2.01719 z m 318.78084,-47.02274 c 4.8648,-3.40744 6.4676,-10.11982 3.6962,-15.47915 -1.483,-2.86777 -7.72922,-6.77469 -10.2294,-6.39832 -0.6875,0.10349 -2.195,0.24442 -3.35,0.31317 -1.155,0.0688 -3.63,1.655 -5.5,3.525 -2.90213,2.90213 -3.4,4.08824 -3.4,8.1 0,4.01176 0.49787,5.19787 3.4,8.1 2.93723,2.93723 4.06387,3.4 8.27749,3.4 2.8014,0 5.82591,-0.66431 7.10571,-1.5607 z"
       id="path1" />
  </g>
</svg>
