<?xml version="1.0" encoding="UTF-8" standalone="no"?>
<!-- Created with Inkscape (http://www.inkscape.org/) -->

<svg
   version="1.1"
   id="svg1"
   width="2548.5935"
   height="403.63757"
   viewBox="0 0 2548.5935 403.63757"
   sodipodi:docname="sign.svg"
   inkscape:version="1.4 (86a8ad7, 2024-10-11)"
   xmlns:inkscape="http://www.inkscape.org/namespaces/inkscape"
   xmlns:sodipodi="http://sodipodi.sourceforge.net/DTD/sodipodi-0.dtd"
   xmlns="http://www.w3.org/2000/svg"
   xmlns:svg="http://www.w3.org/2000/svg">
  <defs
     id="defs1" />
  <sodipodi:namedview
     id="namedview1"
     pagecolor="#505050"
     bordercolor="#ffffff"
     borderopacity="1"
     inkscape:showpageshadow="0"
     inkscape:pageopacity="0"
     inkscape:pagecheckerboard="1"
     inkscape:deskcolor="#505050"
     inkscape:zoom="0.053199405"
     inkscape:cx="-2330.8531"
     inkscape:cy="1635.3566"
     inkscape:window-width="1920"
     inkscape:window-height="1112"
     inkscape:window-x="-8"
     inkscape:window-y="1342"
     inkscape:window-maximized="1"
     inkscape:current-layer="g1" />
  <g
     inkscape:groupmode="layer"
     inkscape:label="Image"
     id="g1"
     transform="translate(-235.03418,-508.96478)">
    <path
       style="fill:#000000"
       d="m 239.11208,881.74344 c 5.2369,-4.4 7.3381,-5.1378 12.4494,-4.3713 3.8855,0.5826 4.5712,0.2997 10.0701,-4.1564 7.6752,-6.2198 17.1667,-16.1024 19.1125,-19.9003 1.2767,-2.4915 4.2315,-6.5007 9.5816,-13 1.8314,-2.2248 10.0441,-15.2485 11.8683,-18.8208 1.0731,-2.1015 3.725,-6.3765 5.8933,-9.5 2.1683,-3.1236 3.9429,-6.44 3.9436,-7.3702 7e-4,-0.93 0.71907,-1.78412 1.1278,-2.3872 7.4913,-11.05319 1.50237,-4.85517 6.0645,-8.1717 1.8026,-2.1018 5.3719,-9.7707 6.1668,-13.25 0.3146,-1.375 3.7372,-8.4897 7.6067,-15.8104 3.8694,-7.3206 7.0355,-13.6652 7.0355,-14.099 0,-0.4338 2.475,-5.7946 5.5,-11.9129 3.025,-6.1183 5.5,-11.8557 5.5,-12.7498 0,-0.8942 0.6146,-3.0437 1.3659,-4.7769 0.7511,-1.733 2.6186,-6.526 4.1497,-10.6511 1.5312,-4.125 3.8303,-9.6003 5.109,-12.1674 1.279,-2.5669 2.6283,-6.5626 2.9989,-8.8793 0.3703,-2.3166 1.9426,-6.8319 3.4937,-10.034 1.5511,-3.2022 3.1069,-7.0815 3.4571,-8.6207 0.3503,-1.5391 1.9074,-6.1736 3.4603,-10.2986 1.553,-4.125 3.1191,-9.2848 3.4804,-11.4661 0.3612,-2.1816 1.5181,-5.176 2.5709,-6.6545 1.0527,-1.4785 1.9141,-3.6716 1.9141,-4.8735 0,-2.5584 5.8042,-19.9109 7.289,-21.7915 0.5584,-0.7073 1.5562,-4.5323 2.2176,-8.5 1.3166,-7.9006 5.0278,-21.9754 6.5387,-24.7988 0.5252,-0.9812 0.9549,-2.7225 0.9551,-3.8694 -10e-5,-1.147 1.3163,-6.239 2.925,-11.3158 1.6087,-5.0767 3.4399,-11.9303 4.0695,-15.2302 5.168,-27.1033 11.7718,-44.6589 16.2784,-43.2745 0.675,0.2077 2.2585,2.379 3.5185,4.8258 2.279,4.4251 2.2879,4.6054 1.7004,33.8244 -0.325,16.1566 -1.0573,31.6816 -1.6274,34.5001 -1.1971,5.9188 -1.1311,30.5798 0.086,32.1006 0.4506,0.563 1.144,2.5413 1.5409,4.3961 0.9011,4.2097 1.0882,29.882 0.2241,30.746 -0.3497,0.3495 -0.044,2.0516 0.6791,3.7823 0.7231,1.7307 1.2425,6.061 1.1539,9.6231 -0.089,3.5618 0.2498,8.4415 0.7517,10.8437 0.6403,3.065 0.5552,5.0351 -0.2853,6.6056 -0.7709,1.4405 -1.0056,4.6949 -0.6587,9.1324 0.2965,3.792 0.8382,12.2944 1.204,18.8945 0.3656,6.5999 1.0644,12.7579 1.5525,13.6843 0.4883,0.9262 0.8878,6.4644 0.8879,12.307 0,5.8426 0.4488,12.5097 0.9974,14.8158 0.5487,2.306 1.4148,11.3929 1.9248,20.1928 0.51,8.8 1.3774,18.025 1.9272,20.5001 4.8654,21.8966 5.6695,23.9999 9.1736,23.9999 4.886,0 12.5277,-5.233 24.3302,-16.661 10.4632,-10.1315 13.6367,-12.5741 21.2247,-16.3363 4.9072,-2.4331 9.822,-5.1736 10.922,-6.09 1.1001,-0.9164 3.6876,-2.2067 5.7501,-2.8671 2.0625,-0.6604 3.75,-1.536 3.75,-1.9458 0,-0.41 2.1375,-1.7558 4.75,-2.9911 2.6125,-1.2352 5.9904,-2.917 7.5063,-3.7375 1.9218,-1.0401 4.0855,-1.2925 7.1455,-0.8335 3.6179,0.5424 4.5662,0.3418 5.3964,-1.1414 0.7987,-1.4273 2.3297,-1.8138 7.399,-1.8677 5.4672,-0.058 7.0976,-0.5353 11.2687,-3.2983 5.7212,-3.7895 6.1955,-3.8724 7.034,-1.2303 0.3836,1.2083 1.5978,2.0594 3.0675,2.1501 1.3379,0.082 2.9951,0.1949 3.6826,0.2499 0.9366,0.075 1.2868,-3.2848 1.3967,-13.4 0.1655,-15.2182 0.6288,-20.2501 2.2386,-24.3155 0.8134,-2.0538 0.8167,-3.3723 0.014,-4.8733 -1.2022,-2.2465 -0.4973,-19.7362 1.2217,-30.3112 0.5364,-3.3 1.4178,-8.9244 1.9586,-12.4985 0.5407,-3.5743 1.8215,-8.2993 2.8465,-10.5 1.7772,-3.8165 3.3498,-16.6044 2.3685,-19.2576 -0.2556,-0.691 -0.9647,-0.9472 -1.5759,-0.5695 -0.6112,0.3778 -0.1608,-0.6481 1.001,-2.2796 3.2555,-4.572 7.4876,-14.4141 6.8794,-15.9989 -0.2995,-0.7807 -0.1373,-2.4267 0.3608,-3.6576 0.4981,-1.231 1.6746,-4.9382 2.6149,-8.2382 0.9401,-3.3001 2.7967,-7.9245 4.1254,-10.2767 1.3289,-2.3522 3.0131,-7.1301 3.7429,-10.6175 1.3694,-6.5457 5.725,-14.319 11.4262,-20.3922 1.6968,-1.8075 4.2383,-4.7982 5.6477,-6.6461 2.8689,-3.7612 5.6415,-3.8254 7.9604,-0.1839 2.6941,4.2307 4.6987,25.772 2.5234,27.1164 -0.55,0.3399 -0.9998,3.4339 -1.0001,6.8754 10e-5,3.4416 -0.4418,8.7024 -0.9817,11.691 -0.5399,2.9886 -1.1951,11.2198 -1.4559,18.2919 -0.3414,9.2599 -0.9063,13.5177 -2.0182,15.2148 -0.8493,1.2961 -1.5442,3.447 -1.5442,4.7798 10e-5,1.3329 -1.076,6.1862 -2.3912,10.7852 -1.3152,4.5991 -2.6316,9.937 -2.926,11.8619 -0.7124,4.6625 -4.1768,17.7258 -7.1602,27.0001 -1.327,4.125 -2.7201,9.2288 -3.0959,11.3418 -0.3758,2.1129 -2.2566,5.9029 -4.1795,8.4221 -3.3451,4.3824 -3.4152,4.6404 -1.6214,5.9661 1.7699,1.308 1.7767,1.4411 0.1248,2.3775 -1.8697,1.0599 -2.4156,3.8925 -0.7499,3.8926 0.5499,-10e-5 0.9999,0.6593 1,1.465 -10e-5,2.9318 -3.2261,11.0731 -4.9671,12.535 -1.3634,1.1447 -1.9215,3.5596 -2.3574,10.1985 -0.3294,5.0182 -1.2611,10.0329 -2.2021,11.8527 -1.4024,2.7119 -1.4456,3.5953 -0.3082,6.3014 0.8474,2.0167 1.2455,6.5601 1.1081,12.6474 -0.2721,12.0586 1.1887,25.2247 3.2539,29.3234 0.8802,1.7472 1.9881,4.9765 2.4618,7.1765 1.612,7.485 4.1688,15.9973 5.0912,16.9501 0.5058,0.5225 0.9197,1.6388 0.9197,2.4806 0,2.7902 4.3653,12.4517 9.5197,21.0694 3.8029,6.3578 5.6873,8.5869 7.4776,8.8452 2.9815,0.4299 14.0027,-1.8433 14.0027,-2.8881 10e-5,-0.4233 2.2649,-2.3967 5.0332,-4.3855 2.7682,-1.9888 5.4529,-4.6186 5.9659,-5.8439 1.2782,-3.0533 3.022,-5.0663 6.1543,-7.1045 3.8859,-2.5287 7.8449,-13.8367 7.8529,-22.4304 -10e-5,-3.9806 0.6115,-7.8536 1.4999,-9.5571 0.8217,-1.5755 1.4964,-4.0505 1.4996,-5.5 0.01,-4.219 1.931,-10.0364 6.2551,-18.9318 5.7235,-11.774 10.0882,-14.349 12.6351,-7.4538 1.9259,5.214 1.7829,24.9048 -0.2415,33.2499 -4.2101,17.3543 -4.1178,15.5262 -0.9846,19.4528 1.5568,1.9509 3.2903,3.5472 3.8525,3.5472 0.5621,0 2.5871,1.2864 4.5,2.8586 1.9128,1.5722 4.6028,3.2118 5.9778,3.6435 1.375,0.4316 3.1218,1.6685 3.882,2.7487 1.2606,1.7917 2.1371,1.904 9.9999,1.2823 7.4225,-0.5872 9.8345,-1.2881 17.3859,-5.052 9.4458,-4.7082 13.6436,-7.3658 18.0183,-11.4073 3.8603,-3.5663 8.4671,-10.2421 9.2669,-13.429 0.6714,-2.6755 1.2043,-2.9302 8.6094,-4.1161 3.3611,-0.5382 3.793,-0.3247 5.25,2.5962 0.8732,1.7502 1.5876,4.4082 1.5877,5.9063 -10e-5,1.4982 0.6749,3.2841 1.5,3.9688 0.825,0.6847 1.4999,2.8166 1.4999,4.7376 0,2.7495 0.7863,4.2129 3.6954,6.8775 2.0325,1.8617 4.62,3.3917 5.75,3.4 2.6167,0.019 9.658,2.4485 9.6854,3.3415 0.011,0.3722 -0.2807,2.0494 -0.6492,3.7272 -0.4855,2.2103 -0.1867,3.5846 1.0847,4.9895 1.9947,2.2041 2.0472,2.106 -2.3163,4.3252 -2.744,1.3956 -3.25,2.2045 -3.2499,5.1953 l -10e-5,3.5424 -2.9044,-2.0681 c -3.833,-2.7294 -4.2376,-2.6578 -7.9316,1.4017 -3.105,3.4121 -6.164,3.8877 -6.1639,0.9584 -10e-5,-1.667 -3.6852,-3.763 -5.4353,-3.0914 -0.7033,0.2699 -2.5806,-0.3675 -4.1719,-1.4164 -1.5911,-1.049 -3.7019,-1.9102 -4.6906,-1.9138 -0.9888,0 -2.8886,-1.1836 -4.2218,-2.6221 -1.8574,-2.0042 -3.0149,-2.4671 -4.9522,-1.981 -1.5941,0.4001 -2.5283,1.3363 -2.5282,2.5338 -10e-5,3.6154 -1.2093,5.011 -4.8467,5.5931 -7.1459,1.144 -8.0274,1.4976 -8.6541,3.4719 -0.3497,1.1005 -1.5131,1.9977 -2.5914,1.9977 -1.1434,1e-4 -2.3351,0.9933 -2.8655,2.3886 -0.6987,1.8375 -1.9041,2.5334 -5.2253,3.0164 -21.2042,3.0842 -39.47,0 -44.6272,-7.5309 -1.2705,-1.8557 -2.8455,-3.5452 -3.5,-3.7546 -0.6543,-0.2095 -1.8649,-0.9363 -2.6899,-1.6157 -0.825,-0.6793 -2.6674,-1.5116 -4.0945,-1.8495 -3.3413,-0.7912 -7.4476,3.1648 -6.6099,6.368 1.3042,4.9874 -8.3375,13.6971 -18.7956,16.9784 -2.2,0.6903 -4.9754,1.621 -6.1675,2.0682 -1.6368,0.614 -2.8045,0.223 -4.7677,-1.5964 -2.2499,-2.0852 -2.9679,-2.2608 -5.3324,-1.3051 -3.6041,1.4569 -8.0619,1.1459 -9.8983,-0.6905 -0.8123,-0.8123 -2.0933,-1.4769 -2.8466,-1.4768 -1.5775,-1e-4 -10.4875,-8.4878 -10.4875,-9.9904 0,-1.556 -4.1587,-13.3742 -5.1486,-14.6313 -0.4858,-0.6169 -1.9657,-4.2168 -3.2887,-8 -5.5505,-15.8717 -6.8177,-18.9775 -8.5182,-20.8784 -1.6038,-1.7926 -5.0494,-11.7695 -7.9893,-23.1335 -1.0065,-3.8897 -4.0552,-8.0358 -4.0551,-5.5146 -10e-5,0.6032 -1.3436,1.7915 -2.9856,2.6406 -1.7663,0.9134 -3.2578,2.6595 -3.6525,4.2757 -0.3664,1.5026 -1.4984,3.805 -2.5145,5.1167 -1.0161,1.3116 -1.8475,2.9857 -1.8474,3.72 -10e-5,0.7344 -1.3324,2.3203 -2.9607,3.5242 -1.6285,1.2039 -2.748,2.5333 -2.488,2.9541 0.4936,0.7986 -3.6278,9.112 -5.7993,11.698 -0.6887,0.8201 -2.1521,4.2422 -3.2521,7.6049 -1.8881,5.7718 -2.2892,6.2474 -7.1692,8.4994 -4.6045,2.1249 -5.5297,3.108 -8.4703,9.0001 -1.8157,3.6379 -4.2146,7.5678 -5.3308,8.7332 -1.1164,1.1653 -3.4831,3.9367 -5.2594,6.1587 -2.4909,3.1155 -4.1658,4.198 -7.3197,4.7309 -2.5003,0.4224 -4.2851,1.3323 -4.5924,2.3414 -1.0475,3.4399 -2.1964,4.7089 -6.6128,7.3037 -4.2038,2.4699 -4.7148,2.5562 -6.7398,1.1379 -2.7248,-1.9086 -4.4197,-0.5249 -5.7399,4.6859 -0.8246,3.2552 -1.2871,3.5801 -7.2468,5.0916 -4.805,1.2188 -7.4573,1.3819 -10.8177,0.6652 -2.8636,-0.6108 -6.2463,-0.5947 -9.4814,0.045 l -5.0294,0.9945 -4.4147,-4.6368 c -2.4281,-2.5502 -4.9954,-5.9867 -5.7052,-7.6367 -1.6266,-3.7812 -6.0202,-8.1699 -10.4593,-10.4473 -1.8848,-0.9669 -4.406,-3.5119 -5.6027,-5.6553 -1.2875,-2.3064 -3.0518,-4.0268 -4.3216,-4.2143 -2.2623,-0.334 -5.4487,-4.1507 -6.6231,-7.933 -0.5284,-1.702 -1.4738,-2.2601 -3.8812,-2.291 -2.8222,-0.036 -3.446,-0.6027 -5.5084,-5.0001 -2.1874,-4.6636 -2.5514,-4.9589 -6.1152,-4.959 -2.3167,0 -4.811,-0.8037 -6.4186,-2.0682 -3.461,-2.7224 -7.3188,-3.7771 -17.8818,-4.8888 -4.8077,-0.5059 -10.2077,-1.6871 -11.9999,-2.6248 -1.7922,-0.9376 -4.3836,-2.284 -5.7587,-2.9919 -2.0531,-1.0572 -2.5561,-2.144 -2.814,-6.0814 -0.3888,-5.9376 -1.5017,-7.345 -5.8084,-7.345 -3.3436,0 -3.3775,-0.046 -3.3776,-4.5657 10e-5,-2.5111 0.4555,-5.4168 1.0122,-6.457 1.48,-2.7655 7.1766,-3.519 12.0035,-1.5877 5.098,2.0398 14.929,2.1195 17.5432,0.1423 2.8231,-2.1353 4.3656,-1.8609 5.4411,0.9681 0.9295,2.4446 1.2002,2.5045 12.2253,2.702 6.2011,0.1111 12.6248,0.1445 14.2747,0.074 13.8803,-0.5929 21.6986,-1.1412 22.1078,-1.5503 0.267,-0.267 -0.4492,-2.2784 -1.5915,-4.4699 -2.1638,-4.1514 -3.9156,-18.0311 -3.9825,-31.5554 -0.02,-4.0643 -0.6449,-7.9816 -1.5533,-9.7379 -2.2375,-4.3269 -4.1579,-48.7068 -2.2772,-52.6214 0.7905,-1.6453 0.6516,-2.71 -0.5829,-4.4726 -1.1106,-1.5856 -1.6204,-4.4663 -1.6203,-9.1566 0,-3.7637 -0.4236,-7.6346 -0.9412,-8.6018 -0.5176,-0.9672 -1.2071,-9.5716 -1.5324,-19.1208 -0.325,-9.5492 -1.0087,-17.8655 -1.5193,-18.4804 -0.5104,-0.6152 -1.2138,-7.6188 -1.5629,-15.5636 -0.903,-20.5498 -3.4346,-37.3195 -5.6997,-37.7559 -1.2856,-0.2471 -1.7446,0.3249 -1.7445,2.1753 -10e-5,3.7145 -2.7597,14.9458 -4.4854,18.2548 -0.8263,1.5844 -1.5052,4.5415 -1.5085,6.5717 0,2.0299 -0.4016,3.9352 -0.8849,4.2339 -0.4832,0.2987 -1.073,3.2323 -1.3108,6.5192 -0.3507,4.8483 -0.9281,6.4355 -3.0596,8.411 -1.4452,1.3392 -2.8849,2.1774 -3.1996,1.8628 -0.3146,-0.3147 -0.2952,0.812 0.043,2.5037 0.4469,2.2347 0.051,3.8556 -1.4492,5.9271 -1.1355,1.5682 -3.1687,6.2769 -4.5181,10.4635 -1.3496,4.1868 -3.5582,9.8119 -4.9078,12.5 -1.3499,2.6883 -2.7714,7.1378 -3.1593,9.8877 -1.0247,7.267 -3.3996,15.0138 -5.4196,17.6792 -2.9355,3.8733 -5.8052,9.2686 -7.1285,13.4022 -0.6898,2.1553 -2.159,5.4176 -3.2647,7.2495 -1.6235,2.6899 -1.9083,4.4551 -1.4805,9.173 0.5805,6.402 -1.3208,11.8355 -7.0879,20.2552 -1.5975,2.3325 -3.2505,5.366 -3.6729,6.741 -0.4223,1.375 -1.5114,3.6249 -2.42,4.9999 -0.9084,1.375 -2.4633,4.2844 -3.4552,6.4653 -0.992,2.1809 -3.1169,5.6235 -4.7222,7.6503 -1.6052,2.0267 -3.203,5.1924 -3.5508,7.0347 -0.3477,1.8423 -1.1914,4.0247 -1.8749,4.8497 -0.6835,0.825 -3.127,5.775 -5.4301,11 -2.3032,5.225 -5.7106,12.65 -7.5719,16.5 -8.90037,11.19926 -3.46699,7.01585 -7.3497,12.5 -1.32346,1.86933 -7.5596,5.8888 -8.6049,9.6166 -0.7311,2.6088 -1.9686,4.3055 -3.769,5.1695 -1.9254,0.9239 -2.8733,2.332 -3.3666,5 -0.4051,2.1914 -2.0607,5.1368 -4.0385,7.1848 -2.402,2.487 -3.3521,4.3912 -3.352,6.718 0,2.387 -0.6269,3.5868 -2.3666,4.5292 -2.5225,1.3665 -7.9945,7.6452 -13.4978,15.4876 -1.8502,2.6369 -5.5535,6.548 -8.2292,8.6914 -2.6757,2.1434 -5.1312,4.7356 -5.4564,5.7602 -0.472,1.4872 -1.4347,1.8106 -4.7707,1.6029 -3.5123,-0.2187 -4.1554,0.03 -4.0292,1.5569 0.086,1.046 -0.8798,2.286 -2.2772,2.9228 -3.5362,1.6113 -4.8081,-0.2299 -4.8433,-7.0102 l -0.03,-5.7297 -3.6544,0.2743 c -5.2446,0.3938 -6.8456,-1.6336 -6.8456,-8.6678 -1e-4,-5.5009 0.1771,-5.8994 4.08,-9.1785 z m 189.2104,-29.5717 c 4.0372,3.5928 8.8297,6.6351 10.4597,6.6401 1.6842,-10e-5 1.5314,-4.88 -0.25,-7.9964 -0.786,-1.375 -1.4451,-4.4125 -1.4646,-6.75 -0.029,-3.535 -0.3635,-4.25 -1.9857,-4.25 -1.0727,0 -2.3641,0.7394 -2.8699,1.6432 -0.76,1.3581 -1.4479,1.4591 -3.9647,0.5817 -1.6748,-0.5839 -3.3387,-0.768 -3.6975,-0.4092 -1.5382,1.5383 0.7076,7.813 3.7727,10.5406 z m 31.1234,12.4768 c 0.7776,1.5036 2.9151,3.9857 4.7499,5.5156 2.9344,2.4467 3.8787,2.7047 7.8363,2.1412 8.5568,-1.2187 17.1393,-3.7735 20.627,-6.1403 1.9256,-1.3068 5.0474,-3.0221 6.9371,-3.8116 1.8897,-0.7896 3.4359,-1.8971 3.4359,-2.461 0,-0.5639 1.35,-1.7235 3,-2.5767 1.65,-0.8532 3,-2.1849 3,-2.9593 0,-0.7744 2.5875,-3.4584 5.75,-5.9645 3.1626,-2.506 7.55,-6.8385 9.75,-9.6276 2.2,-2.7892 5.3809,-6.7311 7.0686,-8.7599 6.1047,-7.3382 9.1943,-14.1887 6.3994,-14.1887 -0.5678,0 -2.7052,0.7064 -4.7501,1.5698 -2.5498,1.0767 -5.2887,1.3883 -8.7179,0.992 -5.2479,-0.6065 -6.7612,-0.1082 -7.7378,2.5482 -0.3834,1.0428 -2.346,1.8425 -5.5716,2.2703 -2.7388,0.3633 -5.4571,1.2359 -6.0406,1.9389 -1.1551,1.3919 -17.3377,1.5198 -22.4,0.1771 -2.6684,-0.7046 -2.75,-0.608 -2.75,3.3231 0,3.6587 -0.3734,4.2625 -3.8401,6.2109 -2.112,1.1871 -4.6125,3.4658 -5.5565,5.0641 -1.6875,2.8565 -3.6034,3.8698 -3.6034,1.9056 10e-5,-2.1674 -1.5707,-0.8265 -2.6356,2.25 -2.7004,7.8011 -3.7146,10.4016 -4.9723,12.75 -1.7156,3.2036 -1.7122,4.4804 0.022,7.8331 z m 128.5511,-136.8331 c 1.4435,0 2.6603,-2.8223 4.0956,-9.5 0.7095,-3.3 1.8859,-6.8875 2.6147,-7.9725 0.7287,-1.0849 1.3249,-3.1525 1.3253,-4.5946 10e-5,-1.4423 0.9308,-5.2796 2.0682,-8.5275 1.1374,-3.2479 2.4538,-7.4802 2.9251,-9.4052 0.4713,-1.925 1.5826,-6.2 2.4689,-9.5 0.8844,-3.3007 2.0401,-8.925 2.563,-12.5001 1.7499,-11.9645 2.6645,-16.0896 3.8237,-17.2489 1.7648,-1.7648 1.4863,-8.7511 -0.3489,-8.7511 -2.2294,0 -1.8153,-1.3874 0.7499,-2.5129 1.9082,-0.8371 2.2962,-1.8828 2.5542,-6.8828 0.3812,-7.3878 -1.1599,-9.3906 -3.2947,-4.2814 -0.845,2.0224 -1.9623,3.6771 -2.4828,3.6771 -0.5205,0 -1.4658,1.9125 -2.1007,4.25 -0.6365,2.337 -2.0108,6.3772 -3.0579,8.9771 -1.0473,2.5998 -2.8078,9.1199 -3.9124,14.4892 -1.1048,5.3691 -2.8558,11.5669 -3.8913,13.7728 -1.162,2.4761 -2.1206,7.4548 -2.5047,13.011 -0.8659,12.5214 -3.689,39.9123 -4.1656,40.4166 -0.7864,0.8319 -0.3695,3.0833 0.5709,3.0833 z m 20.0942,-87 c 0.5825,0 0.7809,0.4501 0.441,1 -0.34,0.55 -0.8165,1 -1.059,1 -0.2427,2e-4 -0.441,-0.4499 -0.441,-1 0,-0.5499 0.4766,-1 1.059,-1 z m 119.5625,235.7635 c 1.4222,-0.831 4.9474,0.7669 3.5699,1.6181 -0.6467,0.3997 -1.912,0.3146 -2.812,-0.1891 -0.9,-0.5037 -1.2411,-1.1467 -0.7579,-1.429 z m 25.0849,-1.0235 c 7.8996,0.5613 8.9374,1.0889 2.2935,1.1657 -3.0251,0.035 -6.0821,-0.3055 -6.7935,-0.7568 -0.7218,-0.4579 1.2667,-0.6386 4.5,-0.4089 z m 45.276,-170.2399 c 0.7596,-5.4182 4.1327,-13.5209 6.41819,-15.4176 0.7832,-0.6502 2.6747,-1.2721 4.2034,-1.3822 2.4021,-0.1731 2.9231,0.2952 3.8376,3.4495 0.582,2.0072 1.8447,4.5165 2.8059,5.5761 1.7599,1.9401 2.9199,6.3076 4.8531,18.2741 0.5775,3.575 1.5288,8.8243 2.114,11.6652 1.2205,5.9252 0.4746,7.3352 -7.6747,14.5085 l -4.5158,3.9748 -4.2621,-2.853 c -3.73359,-2.4992 -4.40529,-3.5316 -5.41579,-8.3243 -0.6344,-3.0092 -1.197,-7.3571 -1.25,-9.6622 -0.053,-2.305 -0.5464,-4.4691 -1.0964,-4.8089 -1.0992,-0.6794 -1.1068,-7.2301 -0.017,-15.0001 z m 31.51739,105.4999 c 0.786,-1.3749 1.4519,-3.6249 1.4799,-5 0.078,-3.8531 1.2348,-4.9135 6.4109,-5.8807 4.89,-0.9136 7.2435,-2.6765 15.937,-11.9382 2.2296,-2.3752 5.6555,-5.1462 7.613,-6.1575 1.9576,-1.0112 6.1085,-3.1789 9.2242,-4.817 4.6967,-2.4696 7.3541,-3.0996 15.5466,-3.686 10.8342,-0.7754 16.5357,0.1979 19.9853,3.4118 1.9007,1.7706 2.0834,2.8931 1.8353,11.2671 -0.4345,14.6576 -3.0604,22.5427 -9.8699,29.6369 -7.6048,7.9228 -33.7985,18.9885 -36.1069,15.2534 -1.2164,-1.9683 -4.5553,-1.2589 -4.5555,0.9682 0,2.6787 7.6245,10.1662 12.0478,11.8315 1.8988,0.7149 5.0272,1.9018 6.9523,2.6376 3.2223,1.2315 6.8003,1.6987 23.4861,3.0672 3.7246,0.3055 6.8488,0.029 8.2702,-0.7314 1.6478,-0.882 2.5876,-0.919 3.3736,-0.133 1.2464,1.2464 4.3548,0.4176 12.5581,-3.3482 2.8535,-1.31 6.3409,-2.3817 7.7501,-2.3817 1.409,0 2.5619,-0.4197 2.5619,-0.9326 0,-0.5129 0.8306,-1.1962 1.8458,-1.5185 1.0152,-0.3222 4.6784,-3.0389 8.1406,-6.0371 5.9538,-5.156 6.4801,-5.9811 9.7152,-15.2315 3.5384,-10.1176 3.7926,-10.947 4.7498,-15.5006 0.7329,-3.4866 4.8696,-7.4521 10.4147,-9.9831 4.0416,-1.8448 4.4876,-1.8713 6,-0.3574 1.3611,1.3624 1.6362,4.0718 1.6478,16.2247 l 0.014,14.5893 4.2203,3.7454 c 4.6317,4.1101 7.5501,5.0014 16.377,5.0015 h 5.87473 l 1e-4,-5.1668 c 0,-6.0083 0.7819,-6.157 1.1325,-0.2153 0.1969,3.3377 0.7204,4.2714 2.9486,5.2576 2.4161,1.0695 3.8293,0.7033 13.064,-3.3856 5.742,-2.5425 11.4686,-5.8228 12.8549,-7.3634 4.5692,-5.0779 11.913,-10.3738 13.5266,-9.7547 0.8873,0.3402 1.7922,-0.039 2.1181,-0.8888 0.3129,-0.8158 0.937,-1.4831 1.3863,-1.4831 0.4494,0 5.219,4.275 10.5991,9.5 5.3801,5.225 10.3298,9.5 10.9992,9.5 0.6695,0 2.5015,1.0807 4.0712,2.4016 1.5697,1.3208 4.8668,2.9221 7.3268,3.5583 2.46,0.6364 5.3727,2.2125 6.4727,3.5026 1.2154,1.4255 3.494,2.5394 5.8085,2.8395 7.29,0.9455 9.1912,5.2087 4.5766,10.2625 -1.0368,1.1354 -1.8851,3.031 -1.8851,4.2123 0,2.0151 -0.3867,2.1207 -6.25,1.7082 -3.4375,-0.2421 -9.4686,-0.6453 -13.4023,-0.896 -7.2711,-0.4637 -15.4532,-3.6012 -18.283,-7.011 -1.5519,-1.87 -5.7237,-2.1009 -6.3077,-0.3492 -0.3009,0.9027 -1.1099,0.77 -3.0481,-0.5 -2.8109,-1.8417 -8.709,-2.3667 -8.7089,-0.7756 0,1.2758 -8.6527,5.0468 -11.5801,5.0468 -3.1566,1e-4 -7.1696,1.8575 -11.7026,5.4169 -2.9144,2.2886 -4.6656,2.9182 -7.6301,2.7432 -2.6888,-0.1586 -4.0249,0.2348 -4.436,1.3065 -0.7602,1.9811 -3.5203,1.962 -5.732,-0.04 -1.34733,-1.2193 -4.42953,-1.6176 -13.70033,-1.7709 -6.5791,-0.1088 -12.5823,-0.6755 -13.3404,-1.2593 -0.7583,-0.5837 -2.9535,-1.6744 -4.8785,-2.4235 -1.925,-0.7491 -5.4795,-2.3995 -7.8989,-3.6676 -4.9871,-2.6139 -10.283,-2.9962 -12.0478,-0.8699 -0.6553,0.7897 -2.5052,1.7243 -4.1109,2.0771 -1.6057,0.3525 -3.1762,1.0565 -3.4899,1.5641 -0.3138,0.5077 -1.7816,0.9257 -3.2615,0.9287 -5.2631,0.011 -9.706,1.9031 -11.4665,4.8837 -3.091,5.2327 -1.5324,10.0568 2.1673,6.7087 1.8109,-1.6388 5.1203,-2.1899 5.0929,-0.8479 -0.073,3.5824 -6.0251,6.4867 -14.9847,7.3117 -27.3683,2.5203 -38.4119,3.0716 -40.6949,2.0314 -1.3196,-0.6013 -5.2626,-1.0931 -8.7624,-1.0932 -5.9163,0 -6.7193,-0.2816 -11.4368,-4.0103 -2.7905,-2.2058 -5.8075,-5.1309 -6.7047,-6.5 -0.8972,-1.3694 -2.592,-2.5044 -3.7663,-2.5226 -5.8962,-0.091 -13.8348,-13.4981 -15.6714,-26.4671 -0.4672,-3.2999 -1.5502,-7.9691 -2.4065,-10.3757 -1.9295,-5.4225 -1.9574,-13.8 -0.057,-17.1242 z m 159.5,61.2724 c 2.475,0 3.4875,0.195 2.25,0.4333 -1.2375,0.2385 -3.2625,0.2384 -4.5,0 -1.2375,-0.2384 -0.225,-0.4333 2.25,-0.4333 z m 256.51573,-4.2724 c 0.733,-1.3749 2.1102,-5.425 3.0607,-9 1.6929,-6.3683 4.744,-12.4807 12.2295,-24.5 2.0552,-3.3 4.1775,-7.35 4.7161,-9 0.703,-2.1534 2.2859,-3.6247 5.609,-5.2135 2.5464,-1.2174 5.7892,-3.5915 7.2064,-5.2757 4.5517,-5.4093 18.0202,-14.8813 27.3742,-19.2514 3.7336,-1.7443 8.3241,-4.2107 10.201,-5.4811 2.0512,-1.3883 4.1628,-2.0716 5.2926,-1.7132 1.2881,0.4083 2.5188,-0.2158 3.9097,-1.9842 1.1319,-1.439 3.0486,-2.5809 4.3319,-2.5809 1.266,0 4.2708,-0.7013 6.6775,-1.5584 2.4065,-0.8571 11.0724,-2.1762 19.2573,-2.9313 14.1148,-1.3022 15.0619,-1.2764 18.3801,0.502 5.1337,2.7516 8.3294,10.8528 8.6735,21.9877 0.1445,4.6751 0.5997,9.7187 1.0116,11.2081 0.5465,1.9759 0.2171,3.4631 -1.2183,5.5 -1.082,1.5357 -2.9782,4.7888 -4.2138,7.2292 -1.2356,2.4406 -2.8693,5.0602 -3.6306,5.8214 -1.3602,1.3603 -1.9209,4.2414 -0.8255,4.2414 1.0813,-1e-4 8.4414,-6.3464 8.4414,-7.2787 -10e-5,-0.5191 1.9125,-3.2279 4.25,-6.0199 4.3093,-5.1466 8.523,-10.751 15.5653,-20.7015 4.1595,-5.8772 11.1847,-18.4334 11.1847,-19.9903 0,-0.5171 1.3657,-3.0934 3.035,-5.725 1.6693,-2.6316 3.6636,-6.8097 4.4321,-9.2846 2.3747,-7.6491 5.3572,-15.0834 6.7003,-16.7019 1.8636,-2.2454 2.0088,-29.0659 0.172,-31.7707 -0.7367,-1.0849 -1.3394,-3.1958 -1.3394,-4.691 -10e-5,-1.4952 -0.4072,-2.9701 -0.9048,-3.2777 -0.4977,-0.3075 -0.664,-2.3548 -0.3696,-4.5494 0.3123,-2.3286 0.057,-4.5666 -0.6135,-5.3743 -0.7106,-0.8562 -0.9296,-3.208 -0.5745,-6.1673 0.332,-2.7651 0.077,-5.9826 -0.603,-7.6256 -0.9188,-2.2183 -0.8961,-3.5211 0.1037,-5.9346 0.9604,-2.3185 0.9915,-3.271 0.1244,-3.807 -1.4043,-0.8678 -0.6001,-19.415 0.9691,-22.3467 0.6155,-1.1501 0.8889,-8.7202 0.6927,-19.1694 -0.2317,-12.3279 0.017,-17.6813 0.8686,-18.7106 0.8192,-0.9899 1.0538,-4.5648 0.7486,-11.4077 -0.3574,-8.0116 0.036,-12.2216 2.0082,-21.4662 1.3491,-6.325 2.4404,-14.2 2.4251,-17.5 -0.015,-3.3 0.1875,-6.8999 0.4504,-8 0.2626,-1.1001 1.0314,-4.9249 1.7075,-8.5 0.6761,-3.575 1.8233,-8.525 2.5492,-11 0.7263,-2.4749 1.6311,-6.2999 2.0108,-8.5 0.38,-2.2 1.2994,-4.8883 2.049,-5.9725 0.7469,-1.0848 1.3743,-3.3348 1.3936,-5.0001 0.056,-4.7431 4.145,-9.0145 8.7005,-9.0893 l 3.7635,-0.062 -0.3534,5.4995 c -0.2523,3.9254 0.054,5.8038 1.0717,6.562 0.7879,0.5872 1.9291,4.4163 2.5517,8.5622 0.6195,4.125 1.7987,11.775 2.6205,17 3.3162,21.0871 3.7335,27.7577 3.1033,49.6089 -0.3472,12.0401 -0.8421,23.4661 -1.0996,25.3911 -0.2576,1.925 -0.665,7.55 -0.9053,12.5 -0.2402,4.95 -0.648,13.05 -0.9061,18 -0.2582,4.95 -2.1067,16.875 -4.1079,26.4999 -2.0013,9.6251 -4.4905,22.4501 -5.5316,28.5001 -1.0412,6.05 -2.3439,12.0107 -2.8949,13.246 -0.6189,1.3874 -0.6579,3.1509 -0.1021,4.6127 0.6221,1.6362 0.5011,2.7947 -0.3919,3.754 -2.2101,2.3737 -3.7733,8.0504 -4.6504,16.8873 -1.0128,10.2038 -0.9984,9.5365 -0.3124,14.5 0.304,2.2 0.7482,7.15 0.987,11 0.7695,12.4074 2.0391,18.7847 5.8729,29.5 2.0662,5.775 4.404,13.1317 5.1953,16.3483 1.736,7.0571 4.6191,11.2197 9.5039,13.7212 l 3.6507,1.8698 3.8493,-3.02 c 2.1171,-1.661 4.3827,-3.7186 5.0348,-4.5724 0.9985,-1.3078 1.2937,-0.9747 1.8729,2.1128 1.2704,6.7717 -0.033,12.6819 -3.476,15.7579 -2.7844,2.488 -3.8631,2.7824 -10.1938,2.7824 -8.4764,0 -12.1157,-2.0538 -14.8571,-8.3844 -0.9802,-2.2636 -3.0226,-5.4404 -4.5389,-7.0597 -3.2063,-3.4242 -5.4926,-8.423 -5.4926,-12.0094 0,-3.7281 -1.9716,-11.6235 -3.7574,-15.0465 -0.8608,-1.65 -2.8344,-5.25 -4.3857,-8 -1.7102,-3.0314 -2.8278,-6.5053 -2.8388,-8.8233 -0.026,-5.44 -3.1345,-4.7449 -4.5268,1.0121 -0.5546,2.294 -2.0584,5.3782 -3.3413,6.8536 -1.2829,1.4755 -2.7855,3.982 -3.3391,5.5702 -0.5536,1.5881 -1.4285,2.8873 -1.9443,2.8874 -0.5157,0 -1.8344,1.9125 -2.9303,4.2499 -3.6453,7.7749 -9.5806,16.2333 -12.3397,17.5854 -1.4988,0.7344 -3.0004,2.0844 -3.3371,3 -1.8053,4.9085 -16.5057,20.3654 -25.0095,26.2965 -2.3375,1.6304 -4.25,3.3364 -4.25,3.7912 0,0.4549 -1.3655,1.1001 -3.0344,1.4339 -1.6689,0.3337 -4.4814,2.1716 -6.25,4.084 -1.7686,1.9124 -5.9156,4.6583 -9.2156,6.1018 -3.3,1.4436 -9.1403,4.1912 -12.9784,6.1057 -4.0701,2.0301 -7.1264,3.0372 -7.3334,2.4163 -0.6486,-1.9458 -3.2242,-1.1002 -4.162,1.3663 -0.7382,1.9417 -1.8907,2.5703 -5.7252,3.1223 -2.6406,0.3803 -5.5311,1.3291 -6.4235,2.1087 -4.1465,3.6219 -15.7838,6.6295 -31.8775,8.2386 -7.7893,0.7787 -9.0138,0.6457 -14.6452,-1.5898 -6.3174,-2.5079 -14.3548,-8.5039 -14.3548,-10.7087 0,-0.6832 -1.575,-3.0821 -3.5,-5.3311 -3.8562,-4.5051 -3.8984,-4.6808 -1.9843,-8.271 z m 21.304,-0.2574 c 0.4341,0.6834 4.1397,2.4202 8.2347,3.8595 7.1872,2.5262 7.7406,2.5745 15.9455,1.3877 4.6751,-0.676 9.0636,-1.6814 9.7524,-2.234 1.201,-0.9634 4.433,-1.8077 21.4465,-5.6028 4.2344,-0.9445 8.0219,-2.0403 8.4167,-2.4351 0.3948,-0.3949 1.707,-0.7179 2.9162,-0.7179 1.2092,0 3.2717,-0.8381 4.5834,-1.8625 1.3117,-1.0244 4.4099,-2.8891 6.8849,-4.1436 2.4749,-1.2546 6.3,-3.7354 8.5,-5.513 2.2,-1.7775 5.575,-4.0171 7.5,-4.977 7.2023,-3.5911 8.7233,-6.6343 5,-10.0039 -2.4699,-2.2352 -2.4768,-3.0581 -0.086,-10.246 3.1767,-9.552 3.4004,-12.7562 1.2313,-17.6593 l -1.9465,-4.4004 -9.7467,0.033 c -8.9319,0.03 -9.8873,-0.1533 -11.4284,-2.1965 -1.5413,-2.0433 -1.8153,-2.0958 -3.2812,-0.6301 -0.8795,0.8797 -3.0029,1.5993 -4.7184,1.5993 -2.0426,0 -3.9189,0.8629 -5.4361,2.5 -1.8125,1.9557 -3.3003,2.5 -6.8336,2.5 -3.9867,0 -4.8298,0.4106 -7.1862,3.5001 -1.4683,1.9249 -3.2501,3.4999 -3.9597,3.4999 -0.7093,0 -3.0951,1.6875 -5.3016,3.75 -6.2689,5.8599 -9.4826,8.4862 -13.8584,11.3255 -2.2285,1.446 -7.6285,6.3422 -12,10.8804 -4.3714,4.5382 -8.9606,8.6435 -10.1981,9.1229 -1.5497,0.6004 -2.2737,1.7355 -2.3261,3.6464 -0.042,1.5262 -0.6827,4.3498 -1.4239,6.2748 -1.5661,4.0666 -1.7932,6.9897 -0.6803,8.7426 z m 26.0879,-0.1855 c 0.4993,-0.3085 1.9617,-0.1386 3.25,0.3777 2.191,0.8777 2.1323,0.9426 -0.9076,1.0018 -3.2862,0.064 -3.9989,-0.3557 -2.3424,-1.3795 z m 143.2235,-204.976 c 0.4795,0.2963 0.6142,3.7742 0.2993,7.7288 -0.3148,3.9546 -0.7144,8.9902 -0.888,11.1901 -0.1736,2.2 0.1582,4.8978 0.7373,5.9951 0.5967,1.1306 1.0051,7.5118 0.9428,14.7257 -0.061,7.0019 0.2674,12.9639 0.7289,13.2491 1.0672,0.6597 2.1446,-2.056 1.4913,-3.7586 -0.272,-0.7087 0.3757,-4.0124 1.4392,-7.3415 1.0635,-3.3291 2.4846,-10.5117 3.158,-15.9613 0.6733,-5.4497 1.7899,-11.0335 2.4811,-12.4084 0.7344,-1.4608 1.5658,-9.1458 2.0001,-18.4871 0.5292,-11.3804 1.1692,-16.637 2.2214,-18.2427 0.9708,-1.4816 1.2322,-3.202 0.7618,-5.013 -1.0884,-4.1903 -1.2914,-14.2708 -0.2998,-14.8837 0.4823,-0.2981 0.5495,-1.5165 0.1495,-2.7077 -0.4001,-1.1913 -0.8372,-8.4659 -0.9714,-16.1659 -0.3808,-21.8495 -0.3241,-23.9369 0.6778,-24.95 2.4061,-2.4328 0.5985,-2.597 -1.9295,-0.1754 -2.3466,2.2481 -3.0877,4.149 -4.0688,10.4371 -0.6596,4.2286 -1.4322,8.5883 -1.7168,9.6884 -0.4616,1.7847 -1.9978,14.6916 -2.7582,23.1738 -0.1565,1.7456 -0.8663,5.2518 -1.5774,7.7915 -0.9752,3.4849 -1.0181,5.2209 -0.1728,7.0761 1.1898,2.6111 0.3563,3.2519 -1.637,1.2585 -0.9332,-0.9333 -1.1999,-0.8076 -1.1999,0.5657 0,0.9712 0.4405,2.589 0.9789,3.595 0.7012,1.3102 0.587,2.1546 -0.4023,2.9759 -1.5706,1.3033 -1.9676,19.7037 -0.4455,20.6445 z m 75.8299,-37.3343 c 0.4818,-5.235 1.3023,-8.1115 2.9484,-10.3381 3.2992,-4.4625 4.3624,-8.4364 4.5205,-16.9096 0.1314,-6.8867 0.4875,-8.0867 4.3548,-14.6746 2.7427,-4.672 4.2118,-8.3744 4.2117,-10.615 0,-1.9265 0.8802,-4.5597 2,-5.9833 1.1,-1.3985 2,-2.8724 2,-3.2753 0,-3.3306 15.4193,-26.6312 18.3734,-27.7649 0.7531,-0.2889 1.6872,-1.7992 2.0758,-3.3562 0.8956,-3.5861 3.3423,-6.3308 5.6445,-6.3307 3.3328,0 3.7768,14.0223 0.5668,17.9029 -1.3423,1.6229 -3.5023,11.1126 -3.5963,15.8 -0.035,1.7617 -0.469,4.2367 -0.9637,5.5 -0.4948,1.2634 -1.3979,4.16 -2.0072,6.4371 -0.9649,3.6011 -1.5493,4.2229 -4.5023,4.7769 -3.4517,0.6475 -8.591,5.9514 -8.591,8.8659 0,0.7788 -1.3418,3.3965 -2.9818,5.8167 -1.64,2.4203 -2.9899,5.2835 -3,6.3629 -0.01,1.0794 -1.2193,2.9201 -2.6874,4.0908 -2.5192,2.0087 -2.6831,2.6665 -2.9189,11.7017 -0.1374,5.2656 -0.7361,10.4826 -1.3307,11.5935 -0.5947,1.1111 -1.0812,3.6022 -1.0812,5.5361 0,2.1909 -0.6062,3.8553 -1.6083,4.4162 -1.637,0.9161 -2.8824,8.7779 -1.5236,9.6177 1.0609,0.6557 0.363,12.2813 -0.8763,14.5968 -0.5964,1.1143 -0.8119,2.4667 -0.479,3.0055 1.2984,2.1008 -1.8394,0.8198 -5.562,-2.2708 l -3.9147,-3.2499 0.1286,-12 c 0.071,-6.6 0.4291,-15.2641 0.7963,-19.2533 z m 80.4965,133.2532 c 0.1649,-0.5499 0.8965,-3.025 1.6259,-5.5 0.7294,-2.4749 2.393,-6.5249 3.6968,-9 2.5948,-4.9254 3.7957,-14.832 3.1948,-26.3562 -0.096,-1.846 0.5156,-4.6918 1.3597,-6.3241 2.0081,-3.8832 3.8376,-15.2525 3.6808,-22.8743 -0.068,-3.3299 0.5993,-8.1865 1.484,-10.7922 0.8847,-2.6057 1.3293,-5.6173 0.9879,-6.6925 -0.3411,-1.0751 0.053,-5.4436 0.8753,-9.7077 0.8226,-4.2642 1.7992,-11.128 2.1705,-15.253 0.3711,-4.125 0.8188,-8.85 0.9948,-10.5 0.176,-1.65 0.6206,-6.15 0.9879,-9.9999 0.3672,-3.8501 1.3094,-8.4348 2.0937,-10.1886 0.7842,-1.7537 1.8548,-7.6897 2.3789,-13.1912 1.0227,-10.7328 2.6899,-18.8412 4.2956,-20.8911 0.5475,-0.6991 1.1992,-5.8741 1.4482,-11.5001 0.2489,-5.6259 1.1405,-12.929 1.9812,-16.2291 0.8407,-3.3 1.5866,-9.1499 1.6575,-13 0.1029,-5.5848 0.5976,-7.657 2.4471,-10.25 5.4402,-7.6272 10.6441,-0.4738 9.6115,13.2123 -0.2506,3.3207 -0.5915,10.5844 -0.7577,16.1415 -0.245,8.2018 -0.7091,10.7942 -2.4654,13.7707 -2.2987,3.896 -2.7775,9.6306 -1.626,19.4725 0.3956,3.381 0.22,5.7525 -0.4774,6.4499 -0.6067,0.6067 -1.1031,2.0867 -1.1031,3.2888 0,1.2021 -0.6723,3.4746 -1.4938,5.05 -0.8217,1.5754 -1.4967,4.5225 -1.5,6.5492 0,2.0267 -0.5247,4.9517 -1.1585,6.5001 -0.6338,1.5482 -1.3237,6.865 -1.5331,11.8151 -0.2095,4.9499 -1.0826,11.8286 -1.9402,15.286 -1.2485,5.0342 -1.3121,6.5841 -0.3174,7.7825 0.9961,1.2003 0.8877,3.2217 -0.5479,10.214 -0.9843,4.7945 -2.4016,9.4278 -3.1494,10.2961 -1.7799,2.0667 -1.7252,3.8438 0.1403,4.5597 2.0166,0.7738 1.8902,3.6047 -0.3388,7.5813 -2.3476,4.1885 -3.2293,7.8728 -3.5776,14.9494 -0.1786,3.6293 -0.8729,6.2629 -1.9291,7.3196 -1.1275,1.1274 -1.3739,2.1828 -0.778,3.3307 0.4797,0.9245 0.7224,5.0557 0.5391,9.1807 -0.3334,7.5114 -0.6463,10.2537 -1.968,17.2466 -0.689,3.6454 -0.6032,3.7875 3.1723,5.2675 2.1342,0.8365 5.2303,2.1228 6.8803,2.8585 8.0513,3.5899 10.6515,4.6274 11.5979,4.6273 0.5666,1e-4 3.4898,1.1251 6.4958,2.5 3.0061,1.3751 6.1106,2.5001 6.8988,2.5001 1.7221,0 11.0097,3.4713 14.5074,5.422 1.3751,0.7669 4.3001,1.6961 6.5001,2.065 2.2,0.3687 7.825,1.9419 12.5,3.4963 14.2933,4.7519 18.7737,6.0167 21.3129,6.0167 5.3984,0 8.8464,1.2887 9.7406,3.6406 0.4933,1.2977 1.358,2.3594 1.9217,2.3593 1.3754,0 1.299,-4.6006 -0.1433,-8.5882 -1.2423,-3.4356 -1.0246,-6.1135 3.0426,-37.4118 1.1078,-8.5249 2.5594,-17.4733 3.2258,-19.8854 0.8941,-3.2365 0.9211,-4.8504 0.1028,-6.1611 -0.8343,-1.3358 -0.8002,-1.8941 0.1382,-2.2541 0.686,-0.2633 2.3098,-3.6603 3.6085,-7.5491 1.9099,-5.7188 2.1239,-7.3565 1.1196,-8.5665 -0.7058,-0.8506 -0.8939,-2.0544 -0.4359,-2.7899 0.7348,-1.18 1.5875,-6.6851 2.911,-18.7938 0.2706,-2.475 0.9298,-5.85 1.4649,-7.5001 0.5353,-1.6499 0.9378,-5.2499 0.8949,-8 -0.043,-2.7499 0.6362,-6.9691 1.5089,-9.3756 0.8727,-2.4067 1.5868,-7.1836 1.5867,-10.6152 0,-4.7945 0.4792,-6.8485 2.069,-8.8696 1.303,-1.6566 1.837,-3.3605 1.4426,-4.6034 -0.4026,-1.2686 0.287,-3.3174 1.9311,-5.7368 3.131,-4.6077 3.3198,-7.2993 0.5121,-7.2993 -1.8186,-1e-4 -1.968,-0.412 -1.3482,-3.7161 1.1747,-6.2621 4.4625,-12.4963 9.7696,-18.5254 5.6212,-6.3862 8.8667,-7.3568 12.2189,-3.6547 3.0991,3.4227 2.1524,17.0373 -2.0442,29.398 -0.8675,2.5554 -1.3373,5.0294 -1.0525,5.4955 0.5111,0.827 -3.1715,7.9792 -4.6483,9.0274 -0.4065,0.2887 -0.7056,2.0887 -0.6644,4.0001 0.171,7.9201 -1.447,18.565 -3.2029,21.0739 -1.18,1.6859 -2.066,5.4319 -2.5225,10.6652 -0.6035,6.9185 -0.9898,8.1413 -2.714,8.5922 -1.5996,0.4183 -1.8523,0.9975 -1.237,2.8348 0.4254,1.27 0.7705,3.6591 0.7669,5.3091 -0.013,6.2653 -1.5812,21.0427 -2.3352,22.0099 -0.433,0.5554 -1.1018,3.9303 -1.4858,7.5 -0.3842,3.5696 -1.5438,7.8932 -2.5746,9.6086 -1.1842,1.9659 -1.8783,5.0016 -1.8783,8.215 0,3.9672 -0.4172,5.32 -1.8824,6.1042 -2.3644,1.2654 -3.2851,6.6789 -1.4017,8.2421 0.7563,0.6277 1.0836,1.8566 0.7273,2.7309 -1.5284,3.7508 -4.4079,19.6258 -3.8682,21.3261 0.3246,1.0229 0.081,2.4739 -0.5424,3.2244 -0.6595,0.7947 -1.0069,3.9935 -0.8326,7.6586 l 0.3,6.2939 5,1.7894 c 2.75,0.9841 6.027,1.7912 7.2821,1.7934 1.2552,10e-5 3.7454,0.6155 5.5337,1.3627 4.0108,1.6758 26.6232,3.0669 28.596,1.7591 0.9285,-0.6154 1.3659,-2.5931 1.2776,-5.7768 -0.1049,-3.7827 0.4623,-5.7017 2.5944,-8.7789 3.1242,-4.5089 8.2977,-6.5691 10.9564,-4.363 0.8712,0.7229 4.2766,1.346 7.6638,1.4022 3.7802,0.063 8.3752,0.985 12.096,2.4277 7.0288,2.7254 24.7345,3.8536 33,2.1028 2.75,-0.5826 8.0808,-1.7039 11.8463,-2.4917 3.7656,-0.7881 7.343,-1.9293 7.95,-2.5363 0.607,-0.607 2.0866,-1.1038 3.2879,-1.1038 1.2013,0 5.8632,-1.8413 10.3597,-4.0919 9.0545,-4.532 9.9606,-5.7945 10.4325,-14.5378 0.156,-2.8908 0.9057,-6.0053 1.6659,-6.9212 1.1958,-1.4408 1.1245,-1.8539 -0.5289,-3.063 -1.6489,-1.2056 -1.7607,-1.8424 -0.8152,-4.6416 0.6027,-1.7844 1.1258,-4.8594 1.1623,-6.8333 0.037,-1.9739 0.5329,-4.8157 1.103,-6.3151 0.5701,-1.4995 1.0365,-4.6854 1.0365,-7.0801 0,-2.3946 0.7531,-5.8528 1.6737,-7.6849 0.9205,-1.8321 2.3163,-4.6031 3.102,-6.1579 0.7854,-1.5546 1.2002,-4.0189 0.9216,-5.476 -0.633,-3.3115 1.8897,-14.5412 4.3125,-19.1971 1.6771,-3.223 2.6149,-6.8203 4.9529,-19 0.4751,-2.4751 1.759,-6.5647 2.8465,-9.09 2.301,-5.3273 4.6433,-15.4373 4.3039,-18.5764 -0.1289,-1.1915 0.3875,-2.5415 1.1475,-3.0001 1.7448,-1.0525 4.86,-8.8479 4.2174,-10.5538 -0.2651,-0.7038 0.4124,-2.6297 1.5056,-4.2797 2.2642,-3.4176 3.2841,-5.1532 4.7009,-8 1.8102,-3.6373 6.5109,-11.9829 7.3223,-13 0.4387,-0.55 1.2954,-2.862 1.9037,-5.1377 0.7512,-2.8036 2.2505,-5.0105 4.6568,-6.8458 2.5457,-1.9417 3.466,-3.3544 3.2516,-4.9908 -0.5005,-3.8194 6.7509,-9.0822 13.6274,-9.8904 7.1427,-0.8396 9.7847,-0.1454 14.147,3.7161 4.7458,4.2015 7.3428,10.5067 8.0693,19.5909 0.3549,4.4371 1.214,8.2591 2.0807,9.2573 0.9992,1.1505 1.301,2.9282 0.9336,5.5 -0.2984,2.0899 -1.1041,8.0749 -1.7903,13.2999 -0.6862,5.225 -1.5964,9.7391 -2.0226,10.0316 -0.4263,0.2922 -0.6961,3.8923 -0.5997,8 0.1358,5.78 -0.4632,9.4789 -2.6493,16.3615 -2.0241,6.3726 -2.6679,10.0573 -2.2728,13 0.3034,2.2588 0.3155,3.5516 0.027,2.8729 -0.5457,-1.2829 -3.295,1.599 -6.7338,7.0588 -1.7284,2.7441 -1.7223,2.8396 0.2144,3.3461 1.6733,0.438 1.9042,1.1081 1.4367,4.1752 -0.3062,2.0097 -1.133,4.3289 -1.8376,5.1539 -1.6086,1.8837 -4.0891,8.4488 -4.8555,12.8507 -0.3209,1.843 -2.3855,5.6142 -4.5882,8.3807 -2.2027,2.7664 -4.0049,5.6619 -4.0049,6.4344 0,2.4835 -3.0501,6.1561 -5.9534,7.1681 -2.6519,0.9244 -2.7908,1.2547 -2.3128,5.4969 0.5039,4.47 0.4452,4.5751 -6.1125,10.9419 -4.7584,4.62 -6.6213,7.1479 -6.6213,8.985 0,3.1321 -11.4661,17.0775 -17.0546,20.7423 -2.1807,1.4301 -4.973,4.6398 -6.5244,7.5 -1.4915,2.75 -3.261,5.675 -3.9318,6.5 -2.0933,2.5742 -2.6701,10.7941 -0.9424,13.4309 0.8375,1.2784 1.9092,5.642 2.3812,9.6967 0.922,7.9195 5.2985,21.1098 8.0868,24.3724 0.9402,1.1 2.872,4.5888 4.2932,7.7529 2.9951,6.6681 8.4993,13.7029 10.742,13.7291 0.8526,0.01 1.9806,0.4489 2.5069,0.9749 0.5264,0.5264 5.4664,1.0457 10.978,1.1541 10.4864,0.2063 12.4555,-0.3205 17.7919,-4.7596 1.5547,-1.2933 3.4271,-2.3514 4.161,-2.3514 1.5576,0 6.5122,-5.5954 6.5122,-7.3545 0,-1.3604 3.5869,-4.7252 4.289,-4.0233 0.6197,0.6199 7.6491,-8.0207 11.2455,-13.8231 1.6025,-2.5855 3.9379,-5.2491 5.1895,-5.919 1.2518,-0.6699 2.2761,-1.6351 2.2761,-2.1447 0,-0.5097 1.0125,-2.3368 2.2499,-4.0604 2.809,-3.912 4.3494,-6.4738 5.8172,-9.675 1.4456,-3.1524 2.0172,-4.1344 4.1728,-7.1689 1.2418,-1.7483 1.7752,-4.5794 1.8627,-9.8902 0.151,-9.1493 -0.6448,-24.9089 -1.3604,-26.9409 -1.6581,-4.7083 -2.8335,-13.7476 -2.316,-17.8112 0.6915,-5.43 1.4993,-22.0791 1.9744,-40.6888 0.4229,-16.5637 1.952,-29.7691 4.1109,-35.5 0.9323,-2.475 2.0446,-6.75 2.471,-9.5002 0.427,-2.75 1.1199,-7.2499 1.5398,-10 0.4199,-2.75 1.8245,-7.1223 3.1204,-9.7168 1.2962,-2.5942 2.3568,-5.3368 2.3568,-6.0949 0,-0.7581 0.9,-2.1927 2,-3.1882 1.4647,-1.3257 1.9999,-3.0801 1.9999,-6.5562 10e-5,-4.3838 0.2733,-4.9075 3.5769,-6.8568 3.1587,-1.8636 3.5019,-2.4517 2.9358,-5.0291 -0.5146,-2.3437 -0.2176,-3.1455 1.5078,-4.0689 1.1819,-0.6326 2.7919,-2.6888 3.5777,-4.5695 1.0645,-2.5478 2.0414,-3.4195 3.832,-3.4196 1.3217,0 2.6353,0.5626 2.9192,1.2501 0.3133,0.7588 0.7837,0.3703 1.197,-0.9888 0.3745,-1.2313 1.0982,-1.981 1.6081,-1.6659 0.5098,0.3152 0.6542,1.4323 0.3209,2.4826 -0.4279,1.3497 -0.2079,1.7566 0.7519,1.3884 1.3855,-0.5317 4.3528,6.3451 4.974,11.5272 0.2263,1.8883 1.027,2.6231 3.2987,3.0275 2.0395,0.363 2.5065,0.7296 1.4588,1.1449 -1.2532,0.4968 -1.445,1.8939 -1.0264,7.4726 0.8416,11.2159 0.6364,29.7183 -0.3522,31.7755 -0.6653,1.3839 -0.5961,1.7137 0.2499,1.191 1.0833,-0.6696 1.7672,2.1085 1.2051,4.8949 -0.1111,0.55 -0.3634,5.95 -0.5609,12.0001 -0.2138,6.5547 -0.9927,12.7805 -1.9273,15.406 -0.8626,2.4232 -1.3565,4.6177 -1.0976,4.8768 0.259,0.2588 -0.1244,1.6511 -0.8518,3.0939 -0.7274,1.4428 -1.5915,6.6732 -1.9198,11.6233 -0.3402,5.1275 -1.7024,12.6574 -3.1658,17.4999 -1.4128,4.6751 -3.2588,10.9751 -4.1025,14.0001 -3.627,13.0053 -8.8668,28.7253 -10.5007,31.5028 -5.2419,8.9111 -7.5478,28.704 -3.7449,32.1454 1.0099,0.9139 1.8362,2.7131 1.8361,3.9981 0,1.2849 1.575,4.3997 3.5,6.9216 3.1294,4.0997 4.0158,6.2404 3.6081,8.7131 -0.071,0.4298 0.3322,1.3297 0.8956,2.0001 1.368,1.6277 5.0514,7.4963 7.384,11.7646 2.3802,4.3558 8.1498,10.4822 12.2983,13.0592 1.7523,1.0885 3.3273,2.9618 3.5,4.1631 0.2483,1.7265 1.2402,2.3413 4.7355,2.935 2.6391,0.4485 5.5236,1.8072 7.1561,3.3712 1.9529,1.8709 3.3334,2.4301 4.8286,1.9556 2.4613,-0.7813 2.8163,-4.3155 0.5217,-5.1959 -0.8647,-0.3321 -2.6777,-3.103 -4.0288,-6.1582 -3.1379,-7.0951 -4.1434,-17.9528 -2.3415,-25.2808 0.7298,-2.9672 1.2092,-6.3986 1.0655,-7.6255 -0.1436,-1.2268 1.1534,-5.0517 2.8824,-8.4999 1.7289,-3.4482 4.3474,-8.7131 5.8189,-11.6996 1.4717,-2.9866 4.1085,-7.3391 5.8599,-9.6725 1.7513,-2.3334 3.8447,-5.5197 4.652,-7.0807 0.8072,-1.5612 3.9778,-5.3086 7.0455,-8.3275 3.0678,-3.0191 7.2744,-7.2073 9.3479,-9.307 2.0737,-2.0998 4.9977,-4.0664 6.498,-4.3706 1.5001,-0.304 3.2426,-1.1735 3.8723,-1.9322 0.6297,-0.7586 1.7492,-1.3795 2.4876,-1.3794 0.7386,-1e-4 2.8675,-1.3386 4.731,-2.9748 4.5596,-4.0034 19.448,-6.8221 26.5857,-5.0331 8.804,2.2064 22.5008,13.3585 24.5912,20.0224 0.4289,1.367 1.6269,3.5702 2.6623,4.896 1.2453,1.5944 1.9098,4.1337 1.9625,7.4999 0.285,18.1307 -0.3263,21.6627 -5.3064,30.6616 -1.9564,3.5354 -4.0978,8.1094 -4.7586,10.1646 -0.7346,2.2846 -2.3389,4.4086 -4.1285,5.4656 -1.6097,0.9509 -2.9268,2.3069 -2.9267,3.0133 -10e-5,0.7065 -0.399,1.2844 -0.8861,1.2844 -0.4873,0 -1.6526,1.6153 -2.5892,3.5893 -0.9368,1.9741 -2.5529,4.4389 -3.5914,5.4774 -2.1672,2.1673 -1.6269,4.6635 1.5007,6.9313 4.0915,2.9669 10.142,5.7437 14.0659,6.4554 2.2001,0.3991 4.5605,1.1889 5.2456,1.755 0.8665,0.7159 5.2798,0.3599 14.5001,-1.1698 13.0773,-2.1695 13.3663,-2.2745 21.6323,-7.8686 4.6081,-3.1185 9.0472,-6.6824 9.865,-7.92 0.9824,-1.4863 2.4853,-2.25 4.4284,-2.25 1.9951,0 3.8263,-0.9688 5.6919,-3.0113 2.8358,-3.1047 7.1367,-14.6681 7.1368,-19.1872 0,-1.4061 0.7133,-3.1485 1.5852,-3.8721 1.0105,-0.8388 1.4311,-2.3642 1.1607,-4.2082 -0.3404,-2.3193 0.039,-3.069 1.9147,-3.7822 2.7345,-1.0396 3.0622,-3.435 0.6544,-4.7825 -1.568,-0.8775 -1.5571,-1.1411 0.1572,-3.7997 1.0132,-1.5712 2.7523,-3.5317 3.8646,-4.3567 1.1123,-0.825 3.9876,-3.4125 6.3894,-5.75 2.4019,-2.3375 5.1382,-4.25 6.0807,-4.25 3.4376,0 6.8735,4.5329 7.6029,10.0305 0.6064,4.5713 0.4385,5.3875 -1.3679,6.6528 -1.895,1.3273 -1.9306,1.5709 -0.4451,3.0563 1.2434,1.2435 1.4687,2.7099 0.9808,6.3871 -0.5612,4.2303 -0.3844,4.9063 1.5539,5.9437 1.4121,0.7557 3.9908,0.9198 7.2779,0.4634 2.7998,-0.3889 7.2045,-0.8482 9.788,-1.0209 4.6402,-0.31 18.3645,-4.0557 20.3026,-5.541 0.9366,-0.7178 4.9674,-1.3185 17.0001,-2.5341 2.75,-0.2779 11.5749,-0.7472 19.6109,-1.043 11.9156,-0.4386 15.3049,-0.2479 18.3721,1.0337 2.9401,1.2284 7.6369,1.5715 21.5133,1.5715 12.6369,0 18.8924,0.4023 21.7094,1.3962 2.1765,0.7678 7.7456,1.7105 12.3758,2.0948 7.8613,0.6524 8.6145,0.5442 11.3806,-1.6357 1.6292,-1.2839 5.9042,-3.8551 9.5,-5.714 21.0026,-10.8574 27.6896,-14.1185 28.9721,-14.1293 0.7888,-0.01 3.2639,-0.8928 5.5,-1.9694 3.0603,-1.4734 6.9098,-2.0707 15.5657,-2.4157 6.325,-0.2522 12.4398,-0.7548 13.5885,-1.1171 1.9483,-0.6144 8.2236,0.1079 21.3814,2.4609 3.0084,0.5381 6.6083,1.7842 8,2.7682 1.3915,0.9844 3.8801,2.4584 5.5302,3.2755 1.6499,0.8171 3.8723,2.2731 4.9385,3.2356 2.2081,1.9933 2.5328,2.0542 4.4572,0.8355 0.8237,-0.5214 1.1236,-1.5926 0.7313,-2.6136 -0.365,-0.9515 -0.1153,-3.2466 0.555,-5.1004 0.9293,-2.5698 0.9412,-3.6478 0.051,-4.5381 -1.4957,-1.4958 -0.4739,-12.5497 1.4149,-15.3061 0.7434,-1.0848 1.3516,-2.6046 1.3517,-3.3772 -1e-4,-1.4978 4.2324,-10.9924 9.0622,-20.3295 1.6158,-3.1236 2.9378,-6.2026 2.9377,-6.8423 1e-4,-0.6396 0.9,-2.3071 2.0001,-3.7056 1.1,-1.3984 2,-3.7236 2,-5.1671 0,-1.5416 0.8248,-3.1401 2,-3.8737 1.235,-0.7713 1.9999,-2.3321 2,-4.0806 -1e-4,-1.5572 2.2489,-6.841 4.9977,-11.7414 2.7487,-4.9005 4.9987,-9.4433 5,-10.0949 0,-0.6518 0.5385,-2.4518 1.1938,-4 0.6554,-1.5484 1.67,-4.835 2.2548,-7.3039 0.7937,-3.3518 1.7584,-4.822 3.8084,-5.8045 1.7594,-0.8434 2.7458,-2.1042 2.7468,-3.5113 9e-4,-1.2076 0.7883,-3.6193 1.75,-5.3595 5.2052,-9.42 6.3008,-11.1061 9.1452,-14.0768 1.7068,-1.7825 3.1033,-3.4648 3.1032,-3.7386 0,-0.5224 1.8145,-2.8604 6.0144,-7.7497 1.4342,-1.6697 4.0118,-3.2317 6,-3.6359 2.624,-0.5337 3.5684,-1.2841 3.8201,-3.0356 0.2338,-1.6271 1.4859,-2.7789 4.1642,-3.8309 2.164,-0.8501 4.0546,-2.3642 4.3467,-3.481 0.4342,-1.6591 1.0501,-1.866 3.8357,-1.2886 1.8254,0.3786 3.863,1.3818 4.5279,2.2297 1.6672,2.1256 2.6656,9.5963 1.8073,13.5214 -0.3909,1.7874 -1.0045,7.525 -1.3635,12.75 -0.6088,8.8601 -0.8044,9.5216 -2.9027,9.8196 -2.2752,0.3231 -3.053,1.7338 -1.2943,2.3471 0.6027,0.2102 0.6114,1.811 0.024,4.3334 -0.5129,2.1999 -0.9426,6.6121 -0.9558,9.8048 -0.015,3.6555 -0.7742,7.452 -2.0503,10.2534 -1.1146,2.4467 -2.4658,6.7648 -3.0027,9.5959 -0.537,2.8311 -1.3517,5.6421 -1.8107,6.2466 -0.4589,0.6047 -1.8811,4.0243 -3.1605,7.5993 -1.2794,3.575 -4.058,9.5126 -6.1747,13.1947 -2.1168,3.6822 -4.6872,8.6322 -5.7121,11.0001 -1.0249,2.3679 -3.0446,5.5658 -4.4882,7.1067 -1.4435,1.5409 -2.6246,3.5895 -2.6246,4.5525 0,0.9631 -2.271,4.0702 -5.0466,6.9048 -2.7758,2.8347 -6.6115,7.7611 -8.5241,10.9476 -1.9126,3.1864 -5.1439,6.9334 -7.1805,8.3263 -2.5877,1.77 -4.0369,3.7277 -4.8114,6.5 -0.7651,2.7395 -2.2306,4.7408 -4.7352,6.4672 -1.9948,1.3751 -4.7689,4.6614 -6.1646,7.303 -2.1242,4.0205 -2.5357,6.1382 -2.5258,12.9999 0.013,9.1631 1.7494,17.0033 4.7207,21.3198 1.0895,1.5825 2.7441,4.1354 3.6771,5.6728 0.9329,1.5377 2.9099,3.3253 4.3933,3.9726 1.4834,0.6473 4.8594,2.4805 7.5022,4.074 4.5363,2.7353 5.2915,2.8725 13.5,2.4539 9.847,-0.5022 17.0207,-2.7039 30.6949,-9.4203 12.9172,-6.3446 21.15,-11.0741 30.6578,-17.6118 12.406,-8.5304 15.3606,-11.5191 19.044,-19.2638 4.2071,-8.8456 13.9041,-23.5354 18.4516,-27.9518 2.6593,-2.5828 4.6869,-3.545 8.606,-4.084 7.1498,-0.9833 8.7406,1.0336 8.7406,11.0814 0,8.1658 -1.0307,11.7629 -4.4281,15.4544 -1.2654,1.375 -2.832,4.7499 -3.4812,7.4999 -0.8359,3.5407 -2.1158,5.7817 -4.3855,7.6783 -3.0782,2.5721 -3.2191,3.016 -3.5558,11.2014 -0.3191,7.7572 -0.095,9.0316 2.5,14.1827 3.7081,7.3623 11.7314,14.5883 19.3691,17.4446 3.4072,1.2741 6.5499,3.2115 7.4581,4.5975 0.9192,1.4032 2.5436,2.3956 3.9208,2.3955 1.2931,0 4.2643,0.675 6.6026,1.5 2.3383,0.825 6.6406,1.5 9.5607,1.5 2.92,10e-5 6.5759,0.4887 8.1242,1.0861 1.5483,0.5974 8.1967,1.2765 14.7743,1.5092 6.5776,0.2328 12.3604,0.8243 12.8508,1.3148 0.4903,0.4903 0.9797,4.124 1.0876,8.0751 l 0.196,7.1835 -2.8827,-0.5764 c -3.4618,-0.6924 -12.3999,1.9724 -15.2753,4.5542 -2.4648,2.213 -5.2271,2.3259 -7.8767,0.3217 -2.672,-2.0209 -4.8468,-1.8381 -6.3268,0.5319 -2.483,3.9759 -23.4871,2.1068 -26.7695,-2.3821 -0.6507,-0.8899 -2.4006,-1.6179 -3.8886,-1.6179 -1.488,-10e-5 -3.6242,-0.4917 -4.7471,-1.0926 -1.4764,-0.7903 -2.3441,-0.7902 -3.1343,0 -0.6009,0.6008 -2.1599,1.0926 -3.4645,1.0925 -2.555,0 -10.5312,-4.3031 -13.5246,-7.2964 -1.4537,-1.4537 -2.1366,-1.5891 -3.2704,-0.648 -1.1425,0.9482 -1.4331,0.865 -1.4331,-0.4099 0,-0.8797 -1.2375,-2.3791 -2.75,-3.3318 -3.9739,-2.5034 -9.1381,-8.3007 -10.759,-12.0779 -0.7703,-1.7951 -2.0749,-3.5226 -2.8988,-3.8389 -1.1688,-0.4484 -1.2538,-0.9659 -0.3874,-2.3534 1.5039,-2.408 0.3893,-4.8672 -2.7463,-6.0594 -2.0363,-0.7742 -2.4499,-1.4361 -1.9269,-3.0837 0.3661,-1.1538 0.3689,-4.0786 0.01,-6.4993 -0.5926,-3.9514 -0.9348,-4.3997 -3.3488,-4.3877 -2.5724,0.013 -4.3349,1.121 -11.4842,7.2206 -1.7624,1.5037 -3.8264,2.7412 -4.5864,2.7499 -0.7601,0.01 -2.9552,0.9884 -4.878,2.1767 -2.947,1.8213 -3.811,1.9638 -5.5021,0.9079 -2.3586,-1.4732 -3.8035,-0.035 -3.0105,2.997 0.6158,2.3549 -6.3281,8.9229 -9.4405,8.9296 -1.2171,0 -4.5602,0.93 -7.4293,2.061 -11.5612,4.5569 -19.3883,6.944 -22.782,6.948 -1.9666,0 -5.7894,1.1273 -8.4952,2.5 -8.3036,4.2127 -18.0714,2.7621 -29.0263,-4.311 -2.7201,-1.7561 -5.673,-3.1932 -6.5619,-3.1931 -2.4007,-1e-4 -5.5731,-4.9088 -6.3547,-9.8327 -1.1846,-7.4633 -9.9575,-22.1674 -13.2258,-22.1674 -0.6894,1e-4 -4.9321,3.6344 -9.4283,8.0766 -4.5571,4.5022 -10.0223,8.8684 -12.3496,9.8661 -2.7232,1.1672 -4.8159,2.9801 -6.0189,5.2139 -1.5273,2.8362 -2.7268,3.634 -6.9796,4.6435 -2.8245,0.6704 -5.2894,1.6766 -5.4777,2.2362 -0.1882,0.5594 -2.2132,1.9565 -4.5,3.1048 -2.2867,1.148 -5.5449,3.1265 -7.2404,4.3965 -1.6956,1.2699 -4.8455,2.6107 -7,2.9793 -2.1545,0.3685 -5.1791,1.5596 -6.7214,2.6466 -3.8209,2.6932 -11.8093,4.9447 -18.0379,5.084 -6.9663,0.156 -17.658,-1.241 -17.658,-2.307 0,-0.4749 -1.9002,-1.3751 -4.2227,-2.0005 -3.6053,-0.966 -8.6256,-4.0515 -10.9185,-6.6995 -0.3526,-0.4072 -2.4901,-2.7059 -4.75,-5.108 -3.2862,-3.4934 -4.1088,-5.1094 -4.1088,-8.0719 0,-2.0373 -0.721,-5.8203 -1.6023,-8.4068 -1.2295,-3.6082 -1.3319,-5.028 -0.4404,-6.1023 1.0849,-1.3072 0.9845,-3.2698 -0.6041,-11.8015 -0.5842,-3.1371 -3.6406,-3.7243 -6.9121,-1.3283 -1.3531,0.9913 -3.4093,1.2483 -6.7889,0.8492 -3.5157,-0.4152 -5.0798,-0.1968 -5.6927,0.7947 -1.1425,1.8484 -9.1691,1.267 -10.3104,-0.7468 -0.6936,-1.2241 -2.1535,-1.3706 -7.9017,-0.7934 -8.3632,-3.14589 -6.9141,0.85332 -17.5181,0.0639 -15.8261,-1.2374 -19.8318,-1.8445 -17.6912,-2.6815 1.8665,-0.7299 1.87,-0.7706 0.072,-0.8374 -1.0392,-0.039 -2.4587,0.7077 -3.154,1.6589 -1.1816,1.6156 -1.3856,1.5865 -3.1103,-0.4434 -2.6323,-3.0982 -5.7628,-3.3703 -6.1655,-0.5358 -0.1756,1.2375 -0.979,2.25 -1.785,2.2499 -0.8062,0 -2.4623,0.6194 -3.6805,1.3763 -3.013,1.8721 -12.2799,1.916 -14.1291,0.067 -2.1549,-2.1551 -4.4899,-1.7476 -5.7426,1.002 -1.3026,2.8586 -1.967,3.1768 -11.6986,5.6024 -4.0455,1.0083 -8.0954,2.4439 -9,3.1901 -3.5013,2.8884 -13.1233,5.9978 -16.4265,5.3083 -1.7699,-0.3695 -4.903,-0.791 -6.9626,-0.9369 -2.0594,-0.1458 -4.8416,-0.8522 -6.1826,-1.5696 -3.6736,-1.9661 -5.9489,-0.6689 -5.2198,2.9762 0.5013,2.5069 0.2807,2.9846 -1.3781,2.9846 -1.0863,10e-5 -2.0435,0.5626 -2.1273,1.25 -0.084,0.6876 -0.2569,1.7001 -0.3847,2.25 -0.1277,0.55 -0.2842,1.5625 -0.3477,2.25 -0.063,0.6875 -0.9253,1.25 -1.9153,1.2501 -2.428,0 -4.2,1.9312 -4.2,4.5775 0,1.1976 -0.7372,2.79 -1.6395,3.5382 -1.8107,1.5027 -9.5735,3.771 -13.1419,3.8401 -1.2548,0.024 -2.533,0.6998 -2.8404,1.501 -0.3878,1.0104 -1.4348,1.2818 -3.4156,0.8857 -2.0268,-0.4053 -3.637,0.043 -5.5444,1.5431 -1.4783,1.1629 -3.7609,2.1143 -5.0721,2.1143 -2.0438,10e-5 -2.2946,0.3569 -1.7568,2.5 0.5005,1.9938 0.2513,2.5012 -1.2309,2.5062 -1.0221,0 -3.1132,0.6606 -4.6468,1.4606 -2.0184,1.0528 -3.4863,1.1892 -5.3151,0.4938 -3.6623,-1.3923 -9.1688,-1.1778 -10.0968,0.3935 -1.2192,2.0644 -4.818,3.6459 -8.2961,3.6459 -3.6093,10e-5 -12.5856,-2.7047 -15.4761,-4.6634 -1.0849,-0.735 -3.1958,-1.3366 -4.691,-1.3366 -1.4952,0 -3.0049,-0.4635 -3.3549,-1.0297 -0.35,-0.5664 -3.7747,-3.0973 -7.6104,-5.6243 -6.173,-4.0668 -7.4608,-4.5397 -11.2115,-4.1169 -2.3305,0.2626 -7.3699,2.0481 -11.1985,3.9676 -7.237,3.6281 -12.1363,5.0106 -23.9612,6.7608 -3.85,0.5699 -9.3135,1.6588 -12.1411,2.42 -5.0717,1.3652 -5.2405,1.337 -12.5,-2.0898 -4.0474,-1.9108 -8.8141,-3.7148 -10.5929,-4.0091 -1.7787,-0.2944 -3.7462,-1.1524 -4.3724,-1.9069 -0.6474,-0.78 -3.0267,-1.3717 -5.516,-1.3718 -4.8795,0 -8.3776,-2.5374 -8.3776,-6.0768 0,-1.1424 -1.2375,-3.3369 -2.75,-4.877 -3.1273,-3.1841 -5.8612,-7.2803 -7.5393,-11.2962 -0.772,-1.8472 -1.8894,-2.7499 -3.4043,-2.75 -1.5088,0 -2.7838,-1.0225 -3.8531,-3.0901 -1.2958,-2.506 -2.0442,-2.9783 -3.9576,-2.4982 -2.5091,0.6299 -2.686,0.3512 -4.0467,-6.3722 -0.9395,-4.642 -4.3295,-9.0394 -6.9686,-9.0395 -1.4499,10e-5 -3.1594,1.5371 -5.283,4.75 -1.7267,2.6125 -6.2679,8.0181 -10.0916,12.0121 -4.2235,4.4119 -7.2179,8.4717 -7.629,10.3437 -0.3723,1.6947 -1.7568,4.0204 -3.0768,5.1681 -1.32,1.1478 -2.4,2.8656 -2.4,3.8175 0,2.5227 -4.9873,6.3201 -13.7786,10.4909 -10.8784,5.1612 -10.9167,5.1742 -19.0561,6.4643 -8.7967,1.3945 -17.1576,0.5339 -20.5215,-2.1121 -2.6581,-2.0908 -5.1774,-2.4981 -6.1107,-0.9879 -0.8309,1.3445 -8.5093,-1.5439 -10.8862,-4.0951 -1.1584,-1.2434 -2.1133,-3.9634 -2.3473,-6.6867 -0.217,-2.5248 -0.9356,-5.5301 -1.597,-6.6785 -3.7297,-6.4757 -5.5724,-9.1885 -8.9526,-13.1799 -2.0625,-2.4354 -3.75,-4.8595 -3.75,-5.387 10e-5,-0.5276 -1.1902,-2.8445 -2.6449,-5.1488 -2.4837,-3.9345 -2.6377,-4.8839 -2.5279,-15.5839 0.085,-8.2665 -0.2871,-12.1755 -1.3551,-14.2406 -0.8097,-1.5658 -1.4721,-4.2702 -1.4721,-6.0099 v -3.1632 l -4.75,0.682 c -3.4417,0.4942 -5.2822,1.3891 -6.6822,3.2492 -2.7059,3.5951 -11.5693,7.2958 -17.4739,7.2959 -2.7212,0 -5.2533,0.5484 -5.7703,1.2499 -0.5068,0.6876 -0.7676,3.5 -0.5797,6.25 1.2569,18.3934 1.3196,27.6968 0.229,34 -1.5131,8.746 -2.4234,10.5001 -5.4491,10.5001 -3.3295,0 -3.9496,1.5253 -1.5347,3.7751 l 2.0334,1.8944 -2.0111,1.8202 c -1.1062,1.0011 -2.0114,2.4397 -2.0114,3.1967 0,0.757 -0.7875,1.6556 -1.75,1.997 -0.9624,0.3412 -2.4249,1.168 -3.25,1.837 -0.825,0.6691 -3.394,1.4555 -5.7088,1.7473 -2.7483,0.3466 -5.6979,1.7267 -8.5,3.9769 -5.5877,4.4872 -6.6449,4.8146 -17.1857,5.322 -4.8919,0.2355 -9.3919,0.8135 -10,1.2844 -1.9295,1.4942 -9.0976,2.8541 -11.1395,2.1134 -1.0813,-0.3922 -2.641,-0.3836 -3.466,0.019 -2.0848,1.0178 -16.3157,0.3333 -23.2654,-1.1189 -4.9496,-1.0342 -5.9402,-0.9889 -7,0.3199 -1.0112,1.2487 -2.6611,1.3976 -9.1188,0.8223 -4.3363,-0.3864 -8.9899,-0.581 -10.3413,-0.4327 -1.8209,0.2 -2.8866,-0.4851 -4.1158,-2.6459 -0.9123,-1.6035 -2.3944,-2.9184 -3.2937,-2.9219 -0.8992,-10e-5 -2.3721,-1.1313 -3.273,-2.5063 -0.9535,-1.4552 -2.5899,-2.5 -3.9151,-2.5 -1.2523,0 -2.7044,-0.4003 -3.2268,-0.8895 -0.5226,-0.4891 -3.5146,-1.6199 -6.6492,-2.513 -3.1345,-0.8928 -5.9736,-2.0681 -6.309,-2.6108 -0.3355,-0.5427 -1.4695,-0.9869 -2.5201,-0.9869 -2.5448,10e-5 -9.9718,-3.9213 -9.9717,-5.2648 -10e-5,-3.024 3.6042,-8.7429 6.1831,-9.811 2.512,-1.0405 3.2934,-0.866 6.7053,1.4985 l 3.8618,2.6763 3.3749,-1.8883 c 2.6876,-1.5037 3.4231,-2.5828 3.6123,-5.2994 0.5251,-7.5465 3.5949,-24.0219 4.856,-26.0625 0.346,-0.5598 0.3201,-4.7271 -0.058,-9.2607 l -0.6867,-8.243 -6.6745,-2.0816 c -3.6711,-1.1451 -9.1497,-2.6295 -12.1745,-3.2994 -3.025,-0.6695 -8.6501,-2.2226 -12.5001,-3.4519 -3.85,-1.2292 -10.6,-2.7989 -15,-3.4885 -4.4,-0.6897 -9.8296,-2.1021 -12.0657,-3.1388 -5.4926,-2.5467 -6.7037,-2.392 -8.779,1.1213 -1.3501,2.2854 -1.6143,4.0838 -1.1021,7.5 0.6986,4.6585 -0.2492,5.7697 -2.5532,2.9936 -0.6847,-0.825 -1.6712,-1.5001 -2.1923,-1.5 -1.5901,-10e-5 -9.038,-5.5082 -14.0426,-10.3855 -2.916,-2.8418 -5.6405,-4.6145 -7.0922,-4.6145 h -2.3573 l -0.6582,18.1708 c -0.5577,15.3964 -0.4291,18.424 0.8422,19.8288 0.8253,0.9117 1.5004,3.4976 1.5004,5.7461 0,6.1635 3.2351,12.7314 7.6927,15.6181 l 3.8073,2.4654 3.2768,-3.8471 c 1.8023,-2.1158 6.9773,-6.8693 11.5,-10.5631 4.5228,-3.6938 8.949,-7.6138 9.836,-8.7114 2.2751,-2.8147 3.891,-1.3092 3.8652,3.6013 -0.025,4.7929 -2.8743,11.772 -5.6372,13.8085 -1.0315,0.7605 -2.5924,2.5076 -3.4686,3.8826 -0.8762,1.375 -3.8608,4.0466 -6.6326,5.9371 -2.7718,1.8906 -5.647,4.8156 -6.3896,6.5001 -1.6367,3.7133 -6.3112,4.6171 -10.3141,1.9942 -1.6857,-1.1044 -3.7023,-1.5038 -5.8408,-1.1568 -5.8097,0.9428 -8.6219,-0.1822 -10.3697,-4.1485 -1.6647,-3.7775 -4.9034,-17.6437 -6.3358,-27.1261 -0.457,-3.025 -1.31,-7.675 -1.8956,-10.3335 -1.114,-5.057 -0.8471,-29.1701 0.4018,-36.3064 0.6008,-3.4326 0.377,-4.4873 -1.3099,-6.1742 -3.6519,-3.6519 -4.9328,-7.6665 -3.7284,-11.686 z m 135.1728,88.2501 c 0.4133,1.5423 1.3592,2.2499 3.0078,2.2499 1.3226,0 4.2338,1.21 6.4693,2.6898 3.6918,2.4431 5.5007,2.8031 19.7284,3.9267 32.3049,2.5513 51.6393,1.1049 59.1148,-4.4218 1.4456,-1.0688 4.061,-2.258 5.8119,-2.6425 3.4945,-0.7674 8.2375,-5.6656 8.2375,-8.5068 0,-0.9906 -0.7419,-3.5435 -1.6487,-5.6733 -0.9067,-2.1295 -1.9192,-6.567 -2.25,-9.8607 -0.4956,-4.9356 -0.9531,-6.0562 -2.6013,-6.3716 -1.0999,-0.2109 -3.2985,-1.4754 -4.8856,-2.8108 -2.8758,-2.4197 -2.9407,-2.4257 -19,-1.751 -10.1303,0.4256 -17.4092,1.2045 -19.6012,2.0974 -2.1532,0.8772 -4.9016,1.1814 -7.1861,0.7954 -2.9369,-0.4962 -4.3464,-0.1468 -6.8376,1.6952 -2.9151,2.1551 -3.2074,2.1962 -4.1135,0.577 -1.4034,-2.5079 -3.5583,-2.1447 -4.2775,0.7207 -0.7567,3.0132 -6.6977,6.6181 -15.6094,9.471 -11.4591,3.6683 -16.4805,9.8985 -14.3588,17.8154 z m 172.8348,-96.7501 c 1.5174,0 22.5349,-20.4278 22.5349,-21.9025 0,-1.1388 10.4331,-17.0535 13.0294,-19.8752 1.1526,-1.2527 2.7926,-3.9452 3.6442,-5.9836 0.8517,-2.0383 2.3985,-4.3013 3.4374,-5.029 1.039,-0.7277 1.889,-1.9851 1.889,-2.7941 0,-0.8091 1.575,-4.6579 3.5,-8.553 1.925,-3.8951 3.5,-8.217 3.5,-9.6042 0,-1.3873 0.8427,-3.9254 1.8728,-5.6404 1.0887,-1.8126 2.1319,-6.0486 2.4918,-10.118 0.3405,-3.85 1.5742,-9.475 2.7418,-12.5 1.8703,-4.8463 2.0484,-6.7621 1.4983,-16.1194 -0.5167,-8.788 -0.3639,-10.8355 0.8855,-11.8725 1.9122,-1.5868 1.8998,-6.9084 -0.022,-9.4492 -0.8075,-1.0676 -1.4683,-2.7775 -1.4682,-3.7997 0,-2.8857 -2.8799,-7.7592 -4.5852,-7.7591 -2.083,-1e-4 -10.4148,7.0737 -10.4148,8.8422 0,0.7804 -1.4877,3.4976 -3.3059,6.0383 -4.8179,6.7322 -9.1595,15.394 -12.841,25.6194 -1.7823,4.95 -3.8283,9.3599 -4.5468,9.7997 -0.7185,0.4398 -1.3063,1.6535 -1.3063,2.6971 0,1.0436 -1.1579,4.0588 -2.5741,6.7003 -1.8646,3.4793 -2.4284,5.7273 -2.0459,8.1574 0.8655,5.4969 -0.278,9.1455 -2.8662,9.1455 -2.0036,0 -2.2921,0.6181 -2.7754,5.9472 -0.2965,3.2708 -1.259,7.39 -2.1388,9.1536 -0.8798,1.7636 -1.5996,4.1181 -1.5996,5.2324 0,1.7638 -1.0611,5.5844 -5.0131,18.0505 -0.5819,1.8359 -0.5435,3.5765 0.1062,4.7902 0.7774,1.4527 0.5307,2.6987 -1.0364,5.2344 -1.5841,2.563 -2.0602,5.0242 -2.072,10.7097 -0.01,4.0602 -0.4515,8.057 -0.9847,8.882 -1.4894,2.3047 -1.203,6 0.4651,6 z m 115.8962,-38.6916 c 1.5415,0.5915 1.1051,10.2868 -0.5572,12.3777 -0.5919,0.7445 -0.5827,1.8615 0.024,3 0.5319,0.9976 0.7988,4.1953 0.5932,7.1059 -0.326,4.6145 1.6379,15.6004 3.0392,17.0019 1.2705,1.2703 3.5422,-2.4927 4.6006,-7.6207 0.6441,-3.1202 2.7305,-9.449 4.6366,-14.0639 3.8256,-9.262 6.2584,-19.2991 6.285,-25.9307 0.01,-2.4882 0.6541,-4.9582 1.5187,-5.8223 0.9664,-0.9663 1.276,-2.397 0.8693,-4.0174 -0.6221,-2.4785 1.1135,-9.6733 2.9094,-12.0612 0.5704,-0.7583 0.4427,-3.082 -0.3364,-6.1217 -1.4877,-5.805 -0.8379,-8.1438 2.2751,-8.1892 l 2.2814,-0.033 -2.1695,-1.8117 c -1.9545,-1.6324 -2.0327,-2.0502 -0.7892,-4.2169 2.7919,-4.8644 2.8168,-5.1964 0.5293,-7.0488 l -2.2631,-1.8324 2.6564,-1.0099 c 2.8333,-1.0772 2.5994,-3.0137 -0.3641,-3.0137 -1.5656,-10e-5 -1.7636,-0.9185 -1.6306,-7.5659 l 0.1514,-7.5659 -3.4324,-1.434 c -1.888,-0.7889 -4.0007,-1.4343 -4.6953,-1.4342 -2.5766,0 -4.2788,4.768 -5.2182,14.6165 -0.5269,5.5231 -1.7041,11.5378 -2.6163,13.3663 -0.9121,1.8285 -1.6585,4.2679 -1.6584,5.4211 -1e-4,2.658 -2.4886,14.3004 -3.7593,17.5868 -0.5296,1.3699 -0.6094,3.7239 -0.1771,5.2308 0.4322,1.507 0.3351,4.3721 -0.2156,6.367 -0.7142,2.588 -0.6604,4.4501 0.1892,6.5011 1.3552,3.2721 0.7158,5.9104 -1.4325,5.9104 -1.3256,0 -2.1791,1.5923 -2.4887,4.643 -0.064,0.6286 0.4965,1.378 1.2453,1.6653 z m 69.1907,124.4416 c 0.2119,0.6876 1.4978,1.2501 2.8576,1.25 1.3598,0 2.7505,0.45 3.0903,1 0.34,0.55 3.7603,0.9972 7.5989,1 7.2794,1e-4 10.6758,-1.1983 18.5928,-6.5604 4.7808,-3.2377 5.679,-4.9667 8.3179,-16.0101 2.3115,-9.6737 5.5124,-17.197 8.1603,-19.18 0.9184,-0.6878 2.4245,-3.5228 3.347,-6.3 1.266,-3.8117 2.6158,-5.6707 5.5065,-7.5836 3.0293,-2.0047 3.9699,-3.3664 4.5022,-6.5174 0.3702,-2.1907 0.4175,-4.2389 0.105,-4.5513 -1.1272,-1.1273 -23.1707,2.0468 -26.8407,3.8649 -2.0406,1.0108 -4.6099,1.8379 -5.7098,1.8379 -1.0996,0 -3.6551,1.7895 -5.6788,3.9768 -2.0237,2.1872 -4.5051,4.2388 -5.5141,4.559 -1.009,0.3203 -2.4089,1.6218 -3.1109,2.8923 -0.7019,1.2705 -2.3372,4.2814 -3.634,6.691 -1.2968,2.4095 -3.6112,5.7309 -5.1431,7.3809 -1.5321,1.65 -3.0076,4.575 -3.2794,6.5001 -0.2716,1.925 -1.3864,6.4249 -2.4775,10 -1.7679,5.7926 -2.0158,11.449 -0.6902,15.7499 z m 350.9913,1.3126 c 2.3827,3.4381 2.9673,3.7134 9.2501,4.3548 3.6886,0.3767 8.651,1.1732 11.0277,1.7703 3.0923,0.7769 5.3671,0.7795 8,0.01 14.2792,-4.1775 21.8179,-6.5691 22.6788,-7.1946 0.5501,-0.3995 2.2028,-1.0134 3.6728,-1.3641 2.2659,-0.5404 8.8273,-5.9035 8.8273,-7.2151 -1e-4,-1.0582 -3.5519,-0.2498 -6.382,1.4527 -1.715,1.0316 -5.4521,2.1684 -8.3048,2.526 -4.5,0.5642 -5.4513,0.3663 -7.185,-1.4945 -2.5332,-2.719 -7.2482,-2.7308 -18.3868,-0.046 -11.3212,2.7291 -17.4236,3.4616 -18.2118,2.1866 -0.9062,-1.4665 -7.5296,-1.3361 -7.5296,0.1481 0,0.658 1.1445,2.8479 2.5434,4.8664 z m 127.4582,-65.5616 c 1.2385,0.7654 6.2558,-4.489 10.0473,-10.5223 1.5627,-2.4868 4.2161,-5.5377 5.8963,-6.78 1.6801,-1.2422 3.0549,-2.7482 3.0549,-3.3466 0,-0.5984 1.35,-2.6256 3,-4.5049 1.65,-1.8791 3,-3.8855 3,-4.4584 0,-0.5728 2.25,-4.3909 5,-8.4845 2.75,-4.0936 5.0299,-8.4467 5.0664,-9.6736 0.036,-1.2269 1.3906,-4.4807 3.0089,-7.2307 1.6184,-2.75 3.6213,-6.575 4.451,-8.5 0.8298,-1.9249 2.1219,-4.85 2.8713,-6.5 0.7495,-1.65 1.9453,-5.025 2.6576,-7.5 0.7118,-2.4751 2.0574,-5.4 2.9892,-6.5 1.3358,-1.5769 1.5907,-3.3221 1.2048,-8.25 -0.2693,-3.4375 -0.8816,-6.25 -1.3607,-6.25 -1.6247,0 -10.0598,9.4967 -12.3239,13.875 -0.8485,1.6408 -2.4476,3.2706 -3.5536,3.6216 -1.1061,0.3511 -2.011,1.3212 -2.011,2.1562 0,0.8348 -2.1375,5.9978 -4.75,11.4732 -3.3326,6.9849 -5.3729,10.1126 -6.8374,10.4823 -2.0331,0.5132 -5.4126,6.4873 -5.4126,9.5681 -1e-4,1.2806 -4.035,9.8609 -6.9711,14.8236 -2.4108,4.0749 -5.4888,11.9211 -7.5725,19.3032 -2.585,9.1577 -2.9299,12.2862 -1.4549,13.1978 z m -595.0015,-100.501 c 0.8283,-1.2819 0.9716,-1.2455 0.9846,0.2504 0.01,0.9625 -0.4348,1.75 -0.9847,1.75 -1.2197,0 -1.2196,-0.1128 0,-2 z"
       id="path1"
       sodipodi:nodetypes="cssssssssscssssssssssssssscssscsssssssscsssssssscssssssssssssscssscsssssssssscsssscssssscsssssscssssssssssssssscscsssssssssssssssssssssssscssssscssssssscsssssssssssssssssscsssssssssssssssssscssssssssssssssssssssssssscssssssscsscssssssssssssssssssssssscssssssssscsscssccscscssssscsssssssssssssssscsssssscccssssscssssssscsssssccssssssssssssscssssssscssssccscssssssssssssssssssssssssscsscsssssssssssssssssssssssssssssssssssssssssssssssssssscsssssssssssssssssssssssssssssssscssssssssssssccscssssssssssssssssssscsssssssssssssssssssssssssssssssscccssssssssssssscssssssssssssssccsssssssscsssssssssssssssscsssssscscssssscsssscssssssssssssscccccssssssssssssssssssssssssscssssssssssssssssssssssssssssssssssssssssssssscsssssscsscssssssccscsssssssssssssssssssssssscsssssscssssssssssssssssssssssssssssssssssssssssssssssssscsssssssssssssssssssssssssssssssssssssssssssssssssssssssssscsssssssssssssssssssssssssssssssssssssssscsssssssssssssssssssscsssssssssssssssssssssssssssssssssssssssssssssssssscssssssssscsssssssssssssssssscsscssscscsssssssssssssssscssssssssssssssssssssssssscssssssscsssssscsssssssssssssssssssssssssssssssssssssssssscsssssssscssssssssssssssscssssssssscsssccssssssssssscsssscsssssssssssssssccsscssssssssssssssssssssssssssssssssssssscsssssssscssssssssssssssscssscssscsssssssssssssssscssssssssssssssssscsscsssssssssccssssssssssssssssssssssssscsss" />
  </g>
</svg>
